<svg width="446" height="235" viewBox="0 0 446 235" fill="none" xmlns="http://www.w3.org/2000/svg">
<circle cx="117.5" cy="117.5" r="116.5" stroke="#B9A68E" stroke-width="2"/>
<path d="M39.94 101.6C39.6867 101.6 39.4667 101.507 39.28 101.32C39.0933 101.133 39 100.907 39 100.64C39 100.373 39.0867 100.153 39.26 99.98C39.4467 99.7933 39.6733 99.7 39.94 99.7H46.98C47.0867 99.7 47.14 99.64 47.14 99.52V96.14C47.14 96.0333 47.0867 95.98 46.98 95.98C45.4733 96.1133 43.8333 96.1867 42.06 96.2C41.7933 96.2 41.5667 96.1067 41.38 95.92C41.1933 95.7333 41.1 95.5067 41.1 95.24C41.1 94.9733 41.1933 94.7533 41.38 94.58C41.5667 94.3933 41.7867 94.3 42.04 94.3C44.3333 94.2867 46.3 94.1733 47.94 93.96C49.58 93.7333 51.18 93.38 52.74 92.9C53.0067 92.82 53.26 92.84 53.5 92.96C53.74 93.08 53.9 93.2667 53.98 93.52C54.06 93.7867 54.0333 94.04 53.9 94.28C53.78 94.52 53.5933 94.68 53.34 94.76C52.0867 95.16 50.7933 95.4667 49.46 95.68C49.3533 95.7067 49.3 95.7733 49.3 95.88V99.52C49.3 99.64 49.3533 99.7 49.46 99.7H55.04C55.3067 99.7 55.5333 99.7933 55.72 99.98C55.9067 100.167 56 100.387 56 100.64C56 100.907 55.9 101.133 55.7 101.32C55.5133 101.507 55.2933 101.6 55.04 101.6H49.38C49.2867 101.6 49.2267 101.66 49.2 101.78C48.9867 103.793 48.4133 105.353 47.48 106.46C46.56 107.553 45.1867 108.333 43.36 108.8C43.0933 108.867 42.84 108.827 42.6 108.68C42.36 108.547 42.2 108.347 42.12 108.08C42.04 107.827 42.06 107.593 42.18 107.38C42.3133 107.153 42.5067 107.007 42.76 106.94C44.12 106.567 45.1267 105.987 45.78 105.2C46.4467 104.4 46.8667 103.26 47.04 101.78C47.0667 101.66 47.0133 101.6 46.88 101.6H39.94ZM60.34 101.84C60.0467 101.84 59.8 101.74 59.6 101.54C59.4 101.34 59.3 101.093 59.3 100.8C59.3 100.507 59.4 100.26 59.6 100.06C59.8 99.86 60.0467 99.76 60.34 99.76H74.66C74.9533 99.76 75.2 99.86 75.4 100.06C75.6 100.26 75.7 100.507 75.7 100.8C75.7 101.093 75.6 101.34 75.4 101.54C75.2 101.74 74.9533 101.84 74.66 101.84H60.34ZM79.9 108.06C79.6467 108.073 79.4267 107.993 79.24 107.82C79.0533 107.647 78.9533 107.427 78.94 107.16C78.9267 106.893 79.0133 106.667 79.2 106.48C79.3867 106.28 79.6067 106.173 79.86 106.16C80.0733 106.147 80.4067 106.127 80.86 106.1C80.9667 106.1 81.0333 106.04 81.06 105.92C81.0733 105.893 81.0867 105.867 81.1 105.84C81.1133 105.813 81.12 105.787 81.12 105.76C82.5067 102.107 83.72 98.14 84.76 93.86C84.8267 93.5533 84.9933 93.32 85.26 93.16C85.5267 92.9867 85.8067 92.9267 86.1 92.98C86.3933 93.0333 86.62 93.1867 86.78 93.44C86.94 93.68 86.9867 93.9467 86.92 94.24C85.9867 98.1333 84.82 101.973 83.42 105.76C83.3933 105.867 83.4267 105.92 83.52 105.92C86.56 105.693 89.5533 105.36 92.5 104.92C92.6067 104.893 92.6333 104.833 92.58 104.74C92.1933 103.913 91.5867 102.66 90.76 100.98C90.6267 100.713 90.6067 100.447 90.7 100.18C90.7933 99.9 90.9733 99.7 91.24 99.58C91.5067 99.4467 91.78 99.4333 92.06 99.54C92.3533 99.6467 92.5667 99.8333 92.7 100.1C93.78 102.26 94.8533 104.507 95.92 106.84C96.04 107.107 96.04 107.38 95.92 107.66C95.8133 107.927 95.6267 108.113 95.36 108.22C95.08 108.34 94.8 108.34 94.52 108.22C94.2533 108.113 94.06 107.92 93.94 107.64C93.9 107.56 93.8333 107.433 93.74 107.26C93.66 107.087 93.6 106.953 93.56 106.86C93.52 106.74 93.44 106.693 93.32 106.72C88.5867 107.44 84.1133 107.887 79.9 108.06ZM106.58 95.34C104.833 95.6467 103.447 96.3867 102.42 97.56C101.407 98.7333 100.9 100.18 100.9 101.9C100.9 103.033 101.133 104.02 101.6 104.86C102.08 105.687 102.547 106.1 103 106.1C103.213 106.1 103.433 106.013 103.66 105.84C103.887 105.653 104.14 105.313 104.42 104.82C104.7 104.327 104.967 103.7 105.22 102.94C105.487 102.18 105.753 101.16 106.02 99.88C106.287 98.5867 106.52 97.12 106.72 95.48C106.72 95.44 106.707 95.4067 106.68 95.38C106.653 95.34 106.62 95.3267 106.58 95.34ZM103 108.1C101.973 108.1 101.033 107.5 100.18 106.3C99.3267 105.1 98.9 103.633 98.9 101.9C98.9 99.3533 99.7667 97.2867 101.5 95.7C103.233 94.1 105.5 93.3 108.3 93.3C110.553 93.3 112.413 94.0067 113.88 95.42C115.36 96.8333 116.1 98.6267 116.1 100.8C116.1 102.88 115.613 104.587 114.64 105.92C113.68 107.253 112.36 108.1 110.68 108.46C110.413 108.513 110.167 108.46 109.94 108.3C109.713 108.14 109.567 107.92 109.5 107.64C109.447 107.387 109.493 107.153 109.64 106.94C109.787 106.727 109.987 106.587 110.24 106.52C111.48 106.187 112.433 105.533 113.1 104.56C113.767 103.587 114.1 102.333 114.1 100.8C114.1 99.2933 113.62 98.0267 112.66 97C111.713 95.9733 110.493 95.3867 109 95.24C108.893 95.2133 108.827 95.2667 108.8 95.4C108.493 97.92 108.127 100.047 107.7 101.78C107.287 103.5 106.82 104.807 106.3 105.7C105.78 106.58 105.26 107.2 104.74 107.56C104.22 107.92 103.64 108.1 103 108.1ZM132.22 105.8C132.34 105.8 132.4 105.747 132.4 105.64V95.98C132.4 95.86 132.34 95.8 132.22 95.8H121.26C120.993 95.8 120.767 95.7067 120.58 95.52C120.393 95.3333 120.3 95.1067 120.3 94.84C120.3 94.5867 120.393 94.3667 120.58 94.18C120.767 93.9933 120.993 93.9 121.26 93.9H133.36C133.667 93.9 133.933 94.0133 134.16 94.24C134.387 94.4667 134.5 94.7333 134.5 95.04V106.56C134.5 106.867 134.387 107.133 134.16 107.36C133.933 107.587 133.667 107.7 133.36 107.7H121.26C120.993 107.7 120.767 107.607 120.58 107.42C120.393 107.233 120.3 107.013 120.3 106.76C120.3 106.493 120.393 106.267 120.58 106.08C120.767 105.893 120.993 105.8 121.26 105.8H132.22ZM140.98 107.2C140.687 107.187 140.44 107.073 140.24 106.86C140.04 106.633 139.947 106.373 139.96 106.08C139.973 105.787 140.087 105.54 140.3 105.34C140.527 105.14 140.787 105.047 141.08 105.06C145.48 105.273 149.8 105.733 154.04 106.44C154.333 106.493 154.567 106.64 154.74 106.88C154.913 107.107 154.987 107.373 154.96 107.68C154.933 107.973 154.8 108.207 154.56 108.38C154.333 108.553 154.08 108.613 153.8 108.56C149.6 107.867 145.327 107.413 140.98 107.2ZM152.3 99.84C152.593 99.8933 152.827 100.04 153 100.28C153.173 100.52 153.24 100.787 153.2 101.08C153.16 101.373 153.02 101.607 152.78 101.78C152.553 101.953 152.293 102.013 152 101.96C148.827 101.453 145.72 101.12 142.68 100.96C142.387 100.933 142.147 100.813 141.96 100.6C141.773 100.387 141.687 100.133 141.7 99.84C141.727 99.5467 141.847 99.3 142.06 99.1C142.273 98.9 142.527 98.8067 142.82 98.82C145.94 98.98 149.1 99.32 152.3 99.84ZM154.1 94.54C154.273 94.7667 154.347 95.0267 154.32 95.32C154.293 95.6133 154.167 95.8467 153.94 96.02C153.713 96.1933 153.453 96.26 153.16 96.22C149.173 95.6867 145.413 95.3467 141.88 95.2C141.587 95.1867 141.34 95.08 141.14 94.88C140.953 94.6667 140.867 94.4133 140.88 94.12C140.893 93.8267 141 93.5867 141.2 93.4C141.413 93.2 141.667 93.1067 141.96 93.12C145.853 93.2933 149.673 93.6333 153.42 94.14C153.713 94.18 153.94 94.3133 154.1 94.54ZM161.64 108C161.387 108 161.173 107.92 161 107.76C160.827 107.587 160.74 107.373 160.74 107.12C160.74 106.867 160.827 106.653 161 106.48C161.173 106.307 161.387 106.22 161.64 106.22H168.76C168.88 106.22 168.94 106.167 168.94 106.06L169.46 98.74C169.46 98.6333 169.407 98.58 169.3 98.58H163.3C163.047 98.58 162.833 98.4933 162.66 98.32C162.487 98.1467 162.4 97.9333 162.4 97.68C162.4 97.4267 162.487 97.22 162.66 97.06C162.833 96.8867 163.047 96.8 163.3 96.8H170.62C170.927 96.8 171.18 96.9133 171.38 97.14C171.593 97.3533 171.693 97.6133 171.68 97.92L171.16 106.06C171.16 106.167 171.213 106.22 171.32 106.22H173.36C173.613 106.22 173.827 106.307 174 106.48C174.173 106.653 174.26 106.867 174.26 107.12C174.26 107.373 174.173 107.587 174 107.76C173.827 107.92 173.613 108 173.36 108H161.64ZM181.92 93.9H193.08C193.36 93.9 193.6 94 193.8 94.2C194 94.4 194.1 94.64 194.1 94.92C194.1 95.2 194 95.4467 193.8 95.66C193.6 95.86 193.36 95.96 193.08 95.96H181.92C181.64 95.96 181.4 95.86 181.2 95.66C181 95.4467 180.9 95.2 180.9 94.92C180.9 94.64 181 94.4 181.2 94.2C181.4 94 181.64 93.9 181.92 93.9ZM180.52 107.7C180.24 107.7 180 107.6 179.8 107.4C179.6 107.2 179.5 106.96 179.5 106.68C179.5 106.4 179.6 106.16 179.8 105.96C180 105.747 180.24 105.64 180.52 105.64H194.48C194.76 105.64 195 105.747 195.2 105.96C195.4 106.16 195.5 106.4 195.5 106.68C195.5 106.96 195.4 107.2 195.2 107.4C195 107.6 194.76 107.7 194.48 107.7H180.52ZM65.12 125.1C65.3867 125.1 65.6067 125.193 65.78 125.38C65.9667 125.553 66.06 125.773 66.06 126.04C66.06 126.307 65.96 126.533 65.76 126.72C65.5733 126.907 65.3533 127 65.1 127H61.42C61.3133 127 61.26 127.053 61.26 127.16C61.2333 130.467 60.64 133.027 59.48 134.84C58.3333 136.64 56.52 137.853 54.04 138.48C53.7733 138.547 53.5133 138.513 53.26 138.38C53.02 138.247 52.86 138.047 52.78 137.78C52.7 137.54 52.7267 137.307 52.86 137.08C52.9933 136.853 53.1867 136.707 53.44 136.64C55.4267 136.093 56.86 135.093 57.74 133.64C58.62 132.173 59.0733 130.02 59.1 127.18C59.1 127.06 59.0467 127 58.94 127H53.42C53.3133 127 53.2333 127.06 53.18 127.18C52.6467 128.567 51.9133 129.853 50.98 131.04C50.7933 131.267 50.56 131.407 50.28 131.46C50 131.5 49.74 131.44 49.5 131.28C49.2867 131.133 49.16 130.927 49.12 130.66C49.08 130.393 49.14 130.153 49.3 129.94C50.7533 127.98 51.6933 125.733 52.12 123.2C52.1733 122.92 52.3067 122.687 52.52 122.5C52.7467 122.313 53 122.227 53.28 122.24C53.56 122.267 53.7867 122.387 53.96 122.6C54.1467 122.813 54.22 123.06 54.18 123.34C54.1 123.86 54 124.393 53.88 124.94C53.8533 125.047 53.8933 125.1 54 125.1H65.12ZM70.34 131.84C70.0467 131.84 69.8 131.74 69.6 131.54C69.4 131.34 69.3 131.093 69.3 130.8C69.3 130.507 69.4 130.26 69.6 130.06C69.8 129.86 70.0467 129.76 70.34 129.76H84.66C84.9533 129.76 85.2 129.86 85.4 130.06C85.6 130.26 85.7 130.507 85.7 130.8C85.7 131.093 85.6 131.34 85.4 131.54C85.2 131.74 84.9533 131.84 84.66 131.84H70.34ZM105.08 125.64C105.347 125.693 105.56 125.84 105.72 126.08C105.88 126.307 105.933 126.553 105.88 126.82C105.093 130.54 103.62 133.32 101.46 135.16C99.3 136.987 96.18 138.133 92.1 138.6C91.82 138.627 91.5667 138.553 91.34 138.38C91.1133 138.207 90.98 137.98 90.94 137.7C90.9 137.433 90.96 137.193 91.12 136.98C91.2933 136.753 91.5133 136.627 91.78 136.6C95.46 136.173 98.22 135.2 100.06 133.68C101.9 132.147 103.173 129.747 103.88 126.48C103.947 126.2 104.093 125.98 104.32 125.82C104.547 125.647 104.8 125.587 105.08 125.64ZM90.96 129.82C90.6933 129.767 90.48 129.633 90.32 129.42C90.16 129.193 90.1067 128.947 90.16 128.68C90.2133 128.413 90.3533 128.2 90.58 128.04C90.82 127.88 91.0733 127.827 91.34 127.88C93.2333 128.227 94.7667 128.52 95.94 128.76C96.2067 128.813 96.4133 128.953 96.56 129.18C96.7067 129.407 96.7533 129.653 96.7 129.92C96.6467 130.187 96.5067 130.4 96.28 130.56C96.0533 130.707 95.8067 130.753 95.54 130.7C94.38 130.46 92.8533 130.167 90.96 129.82ZM97.06 123.86C97.3267 123.913 97.54 124.053 97.7 124.28C97.86 124.507 97.9133 124.753 97.86 125.02C97.8067 125.287 97.66 125.5 97.42 125.66C97.18 125.807 96.9267 125.853 96.66 125.8C94.94 125.467 93.3333 125.173 91.84 124.92C91.5733 124.867 91.36 124.733 91.2 124.52C91.0533 124.293 91.0067 124.047 91.06 123.78C91.1133 123.513 91.2533 123.3 91.48 123.14C91.7067 122.967 91.9533 122.907 92.22 122.96C93.22 123.133 94.8333 123.433 97.06 123.86ZM121.04 136.38C121.147 136.38 121.2 136.327 121.2 136.22V133.12C121.2 133 121.147 132.94 121.04 132.94H113.16C112.92 132.94 112.713 132.853 112.54 132.68C112.367 132.507 112.28 132.3 112.28 132.06C112.28 131.82 112.367 131.613 112.54 131.44C112.713 131.267 112.92 131.18 113.16 131.18H121.04C121.147 131.18 121.2 131.12 121.2 131V128.58C121.2 128.46 121.147 128.4 121.04 128.4H112.34C112.1 128.4 111.887 128.313 111.7 128.14C111.527 127.967 111.44 127.76 111.44 127.52C111.44 127.28 111.527 127.073 111.7 126.9C111.887 126.727 112.1 126.64 112.34 126.64H122.2C122.507 126.64 122.773 126.753 123 126.98C123.227 127.193 123.34 127.453 123.34 127.76V137.04C123.34 137.347 123.227 137.613 123 137.84C122.773 138.053 122.507 138.16 122.2 138.16H112.34C112.087 138.16 111.873 138.08 111.7 137.92C111.527 137.747 111.44 137.533 111.44 137.28C111.44 137.027 111.527 136.813 111.7 136.64C111.873 136.467 112.087 136.38 112.34 136.38H121.04ZM131.32 125.56C131.053 125.427 130.873 125.227 130.78 124.96C130.7 124.68 130.727 124.407 130.86 124.14C130.993 123.887 131.207 123.713 131.5 123.62C131.793 123.527 132.073 123.547 132.34 123.68C133.887 124.467 135.307 125.233 136.6 125.98C136.867 126.127 137.033 126.34 137.1 126.62C137.18 126.9 137.147 127.173 137 127.44C136.853 127.707 136.64 127.88 136.36 127.96C136.08 128.027 135.807 127.987 135.54 127.84C134.247 127.093 132.84 126.333 131.32 125.56ZM145.12 125.3C145.4 125.367 145.613 125.52 145.76 125.76C145.92 125.987 145.973 126.24 145.92 126.52C144.373 133.36 139.787 137.253 132.16 138.2C131.867 138.24 131.607 138.173 131.38 138C131.153 137.813 131.02 137.573 130.98 137.28C130.94 137 131 136.753 131.16 136.54C131.333 136.313 131.56 136.18 131.84 136.14C135.213 135.687 137.88 134.64 139.84 133C141.8 131.36 143.153 129.047 143.9 126.06C143.967 125.793 144.12 125.587 144.36 125.44C144.6 125.293 144.853 125.247 145.12 125.3ZM152 139.5C151.8 139.7 151.553 139.8 151.26 139.8C150.967 139.8 150.72 139.7 150.52 139.5C150.32 139.3 150.22 139.053 150.22 138.76V131.2C150.22 131.173 150.207 131.16 150.18 131.16C150.167 131.16 150.153 131.167 150.14 131.18C150.113 131.233 149.907 131.547 149.52 132.12C149.373 132.32 149.18 132.4 148.94 132.36C148.713 132.32 148.567 132.187 148.5 131.96L148.42 131.72C148.207 131.04 148.307 130.373 148.72 129.72C150.013 127.693 150.96 125.36 151.56 122.72C151.627 122.44 151.773 122.22 152 122.06C152.227 121.9 152.48 121.847 152.76 121.9C153.04 121.953 153.26 122.093 153.42 122.32C153.58 122.547 153.633 122.8 153.58 123.08C153.3 124.467 152.9 125.82 152.38 127.14C152.34 127.233 152.32 127.34 152.32 127.46V138.76C152.32 139.053 152.213 139.3 152 139.5ZM166.34 137.6C166.593 137.6 166.807 137.693 166.98 137.88C167.153 138.053 167.233 138.267 167.22 138.52C167.207 138.773 167.107 138.987 166.92 139.16C166.733 139.347 166.507 139.44 166.24 139.44H165.92C163.08 139.44 160.9 139.193 159.38 138.7C157.86 138.207 156.627 137.32 155.68 136.04C155.653 136.013 155.627 136.007 155.6 136.02C155.573 136.02 155.553 136.033 155.54 136.06C155.193 137.047 154.813 137.98 154.4 138.86C154.28 139.113 154.087 139.28 153.82 139.36C153.567 139.453 153.313 139.44 153.06 139.32C152.807 139.2 152.64 139.013 152.56 138.76C152.48 138.507 152.493 138.253 152.6 138C153.547 135.947 154.26 133.773 154.74 131.48C154.793 131.213 154.933 131.007 155.16 130.86C155.387 130.7 155.633 130.653 155.9 130.72C156.167 130.787 156.373 130.94 156.52 131.18C156.68 131.407 156.733 131.653 156.68 131.92C156.493 132.733 156.367 133.28 156.3 133.56C156.273 133.693 156.287 133.8 156.34 133.88C157.033 135.147 157.927 136.053 159.02 136.6C159.127 136.653 159.18 136.62 159.18 136.5V129.52C159.18 129.4 159.12 129.34 159 129.34H156.66H155.7C155.393 129.34 155.127 129.233 154.9 129.02C154.687 128.793 154.58 128.527 154.58 128.22V123.44C154.58 123.133 154.687 122.867 154.9 122.64C155.127 122.413 155.393 122.3 155.7 122.3H164.88C165.187 122.3 165.453 122.413 165.68 122.64C165.907 122.867 166.02 123.133 166.02 123.44V128.22C166.02 128.527 165.907 128.793 165.68 129.02C165.453 129.233 165.187 129.34 164.88 129.34H161.5C161.38 129.34 161.32 129.4 161.32 129.52V131.62C161.32 131.74 161.38 131.8 161.5 131.8H165.7C165.94 131.8 166.147 131.887 166.32 132.06C166.493 132.233 166.58 132.44 166.58 132.68C166.58 132.92 166.493 133.127 166.32 133.3C166.147 133.473 165.94 133.56 165.7 133.56H161.5C161.38 133.56 161.32 133.613 161.32 133.72V137.12C161.32 137.227 161.38 137.293 161.5 137.32C162.62 137.507 164.093 137.6 165.92 137.6H166.34ZM156.84 127.64H163.74C163.86 127.64 163.92 127.587 163.92 127.48V124.22C163.92 124.1 163.86 124.04 163.74 124.04H156.84C156.72 124.04 156.66 124.1 156.66 124.22V127.48C156.66 127.587 156.72 127.64 156.84 127.64ZM175.88 135.96C175.573 135.96 175.307 135.847 175.08 135.62C174.853 135.393 174.74 135.127 174.74 134.82V128.56C174.74 128.533 174.727 128.52 174.7 128.52C174.687 128.52 174.673 128.533 174.66 128.56L174.42 129.04C174.287 129.28 174.08 129.42 173.8 129.46C173.533 129.487 173.307 129.4 173.12 129.2C172.907 128.973 172.787 128.7 172.76 128.38C172.733 128.06 172.807 127.773 172.98 127.52C174.033 125.933 174.847 124.267 175.42 122.52C175.513 122.253 175.673 122.04 175.9 121.88C176.14 121.72 176.4 121.66 176.68 121.7C176.947 121.727 177.153 121.847 177.3 122.06C177.447 122.273 177.487 122.507 177.42 122.76C177.393 122.867 177.347 123.04 177.28 123.28C177.213 123.52 177.167 123.693 177.14 123.8C177.113 123.893 177.153 123.94 177.26 123.94H180.2C180.32 123.94 180.4 123.887 180.44 123.78C180.627 123.22 180.767 122.793 180.86 122.5C180.94 122.233 181.093 122.027 181.32 121.88C181.547 121.72 181.8 121.653 182.08 121.68C182.333 121.707 182.527 121.827 182.66 122.04C182.807 122.24 182.847 122.467 182.78 122.72C182.7 123.027 182.587 123.38 182.44 123.78C182.413 123.887 182.453 123.94 182.56 123.94H185.06C185.287 123.94 185.48 124.027 185.64 124.2C185.813 124.373 185.9 124.573 185.9 124.8C185.9 125.027 185.813 125.227 185.64 125.4C185.48 125.56 185.287 125.64 185.06 125.64H182.18C182.06 125.64 182 125.7 182 125.82V127.22C182 127.34 182.06 127.4 182.18 127.4H184.7C184.913 127.4 185.1 127.48 185.26 127.64C185.42 127.8 185.5 127.987 185.5 128.2C185.5 128.413 185.42 128.6 185.26 128.76C185.1 128.92 184.913 129 184.7 129H182.18C182.06 129 182 129.06 182 129.18V130.64C182 130.747 182.06 130.8 182.18 130.8H184.7C184.913 130.8 185.1 130.88 185.26 131.04C185.42 131.2 185.5 131.387 185.5 131.6C185.5 131.813 185.42 132 185.26 132.16C185.1 132.32 184.913 132.4 184.7 132.4H182.18C182.06 132.4 182 132.46 182 132.58V134.08C182 134.2 182.06 134.26 182.18 134.26H185.34C185.567 134.26 185.767 134.347 185.94 134.52C186.113 134.68 186.2 134.873 186.2 135.1C186.2 135.327 186.113 135.527 185.94 135.7C185.767 135.873 185.567 135.96 185.34 135.96H175.88ZM176.86 125.82V127.24C176.86 127.347 176.913 127.4 177.02 127.4H179.82C179.94 127.4 180 127.347 180 127.24V125.82C180 125.7 179.94 125.64 179.82 125.64H177.02C176.913 125.64 176.86 125.7 176.86 125.82ZM176.86 129.18V130.64C176.86 130.747 176.913 130.8 177.02 130.8H179.82C179.94 130.8 180 130.747 180 130.64V129.18C180 129.06 179.94 129 179.82 129H177.02C176.913 129 176.86 129.06 176.86 129.18ZM176.86 132.58V134.08C176.86 134.2 176.913 134.26 177.02 134.26H179.82C179.94 134.26 180 134.2 180 134.08V132.58C180 132.46 179.94 132.4 179.82 132.4H177.02C176.913 132.4 176.86 132.46 176.86 132.58ZM172.9 125.18C173.073 125.367 173.147 125.593 173.12 125.86C173.107 126.113 173.007 126.327 172.82 126.5C172.62 126.673 172.393 126.747 172.14 126.72C171.887 126.693 171.673 126.587 171.5 126.4C171.033 125.893 170.333 125.16 169.4 124.2C169.227 124.013 169.147 123.793 169.16 123.54C169.173 123.287 169.273 123.073 169.46 122.9C169.66 122.727 169.893 122.647 170.16 122.66C170.427 122.673 170.653 122.773 170.84 122.96C171.453 123.6 172.14 124.34 172.9 125.18ZM169.4 131.24C169.147 131.24 168.933 131.16 168.76 131C168.587 130.827 168.5 130.613 168.5 130.36C168.5 130.107 168.587 129.893 168.76 129.72C168.933 129.547 169.147 129.46 169.4 129.46H171.86C172.167 129.46 172.433 129.573 172.66 129.8C172.887 130.013 173 130.273 173 130.58V135.3C173 135.407 173.033 135.513 173.1 135.62C173.433 136.167 173.847 136.58 174.34 136.86C174.847 137.127 175.593 137.327 176.58 137.46C177.567 137.58 178.973 137.64 180.8 137.64H185.54C185.78 137.64 185.987 137.733 186.16 137.92C186.333 138.107 186.413 138.32 186.4 138.56C186.387 138.813 186.287 139.02 186.1 139.18C185.913 139.353 185.693 139.44 185.44 139.44H180.7C178.247 139.44 176.387 139.3 175.12 139.02C173.867 138.74 172.92 138.24 172.28 137.52C172.2 137.427 172.12 137.42 172.04 137.5C171.507 138.033 170.833 138.6 170.02 139.2C169.793 139.36 169.553 139.407 169.3 139.34C169.047 139.287 168.853 139.14 168.72 138.9C168.587 138.647 168.553 138.38 168.62 138.1C168.687 137.833 168.84 137.613 169.08 137.44C169.627 137.053 170.213 136.573 170.84 136C170.907 135.947 170.94 135.86 170.94 135.74V131.42C170.94 131.3 170.887 131.24 170.78 131.24H169.4Z" fill="#373737"/>
<circle cx="328.5" cy="117.5" r="116.5" stroke="#B9A68E" stroke-width="2"/>
<path d="M262.62 96.48C262.353 96.6267 262.073 96.66 261.78 96.58C261.487 96.5133 261.247 96.3533 261.06 96.1C260.9 95.86 260.847 95.6 260.9 95.32C260.967 95.04 261.127 94.8333 261.38 94.7C264.033 93.18 266.227 91.4 267.96 89.36C268.027 89.2933 268.013 89.22 267.92 89.14C266.053 87.6467 264.54 86.48 263.38 85.64C263.153 85.4667 263.02 85.24 262.98 84.96C262.94 84.68 263.013 84.4333 263.2 84.22C263.387 83.9933 263.627 83.8667 263.92 83.84C264.227 83.8 264.5 83.8667 264.74 84.04C266.167 85.0533 267.653 86.18 269.2 87.42C269.293 87.4867 269.373 87.48 269.44 87.4C270.56 85.7067 271.467 83.8067 272.16 81.7C272.253 81.4067 272.433 81.1867 272.7 81.04C272.967 80.88 273.253 80.8333 273.56 80.9C273.853 80.9667 274.073 81.1267 274.22 81.38C274.38 81.6333 274.413 81.9 274.32 82.18C273.56 84.6733 272.52 86.8933 271.2 88.84C271.133 88.9333 271.14 89.0133 271.22 89.08C272.94 90.5333 274.407 91.82 275.62 92.94C275.833 93.14 275.94 93.3867 275.94 93.68C275.953 93.9733 275.853 94.2267 275.64 94.44C275.427 94.6533 275.167 94.7667 274.86 94.78C274.567 94.78 274.313 94.68 274.1 94.48C272.753 93.2267 271.367 92 269.94 90.8C269.833 90.72 269.747 90.72 269.68 90.8C267.813 92.9867 265.46 94.88 262.62 96.48ZM282.32 83.56C282.053 83.4267 281.873 83.2267 281.78 82.96C281.7 82.68 281.727 82.4067 281.86 82.14C281.993 81.8867 282.207 81.7133 282.5 81.62C282.793 81.5267 283.073 81.5467 283.34 81.68C284.887 82.4667 286.307 83.2333 287.6 83.98C287.867 84.1267 288.033 84.34 288.1 84.62C288.18 84.9 288.147 85.1733 288 85.44C287.853 85.7067 287.64 85.88 287.36 85.96C287.08 86.0267 286.807 85.9867 286.54 85.84C285.247 85.0933 283.84 84.3333 282.32 83.56ZM296.12 83.3C296.4 83.3667 296.613 83.52 296.76 83.76C296.92 83.9867 296.973 84.24 296.92 84.52C295.373 91.36 290.787 95.2533 283.16 96.2C282.867 96.24 282.607 96.1733 282.38 96C282.153 95.8133 282.02 95.5733 281.98 95.28C281.94 95 282 94.7533 282.16 94.54C282.333 94.3133 282.56 94.18 282.84 94.14C286.213 93.6867 288.88 92.64 290.84 91C292.8 89.36 294.153 87.0467 294.9 84.06C294.967 83.7933 295.12 83.5867 295.36 83.44C295.6 83.2933 295.853 83.2467 296.12 83.3ZM311.36 83.72C311.253 83.5333 311.1 83.26 310.9 82.9C310.7 82.54 310.553 82.2667 310.46 82.08C310.34 81.8667 310.313 81.64 310.38 81.4C310.447 81.16 310.587 80.9867 310.8 80.88C311.027 80.76 311.267 80.74 311.52 80.82C311.773 80.8867 311.96 81.0333 312.08 81.26C312.28 81.62 312.58 82.1733 312.98 82.92C313.1 83.1467 313.12 83.3733 313.04 83.6C312.973 83.8267 312.827 83.9933 312.6 84.1C312.387 84.2067 312.153 84.2267 311.9 84.16C311.66 84.08 311.48 83.9333 311.36 83.72ZM316.06 82.92C315.98 83.16 315.827 83.3333 315.6 83.44C315.373 83.5467 315.133 83.56 314.88 83.48C314.64 83.4 314.46 83.2467 314.34 83.02C313.82 82.0867 313.513 81.54 313.42 81.38C313.3 81.1533 313.273 80.9267 313.34 80.7C313.42 80.46 313.573 80.28 313.8 80.16C314.027 80.04 314.26 80.02 314.5 80.1C314.753 80.1667 314.947 80.3133 315.08 80.54C315.293 80.9133 315.6 81.4733 316 82.22C316.12 82.4333 316.14 82.6667 316.06 82.92ZM312.8 85.88C313.093 85.7867 313.373 85.8067 313.64 85.94C313.92 86.0733 314.107 86.2867 314.2 86.58C315.147 89.2333 316 92.0733 316.76 95.1C316.84 95.3933 316.793 95.6667 316.62 95.92C316.46 96.1733 316.227 96.3333 315.92 96.4H315.9C315.593 96.4667 315.307 96.4133 315.04 96.24C314.773 96.0667 314.6 95.8267 314.52 95.52C313.747 92.3733 312.94 89.6 312.1 87.2C312.007 86.92 312.027 86.6533 312.16 86.4C312.307 86.1333 312.52 85.96 312.8 85.88ZM300.56 96.08C300.293 95.9467 300.113 95.74 300.02 95.46C299.927 95.1667 299.947 94.8867 300.08 94.62C301.987 90.9533 303.2 87.0667 303.72 82.96C303.76 82.6667 303.893 82.42 304.12 82.22C304.36 82.02 304.633 81.9333 304.94 81.96C305.247 81.9867 305.493 82.1133 305.68 82.34C305.88 82.5533 305.967 82.8067 305.94 83.1C305.433 87.5 304.16 91.6533 302.12 95.56C301.973 95.84 301.747 96.0267 301.44 96.12C301.147 96.2267 300.853 96.2133 300.56 96.08ZM321.34 89.84C321.047 89.84 320.8 89.74 320.6 89.54C320.4 89.34 320.3 89.0933 320.3 88.8C320.3 88.5067 320.4 88.26 320.6 88.06C320.8 87.86 321.047 87.76 321.34 87.76H335.66C335.953 87.76 336.2 87.86 336.4 88.06C336.6 88.26 336.7 88.5067 336.7 88.8C336.7 89.0933 336.6 89.34 336.4 89.54C336.2 89.74 335.953 89.84 335.66 89.84H321.34ZM341.88 97.6C341.573 97.6 341.313 97.4933 341.1 97.28C340.9 97.0667 340.8 96.8133 340.8 96.52V82.98C340.8 82.6733 340.913 82.4067 341.14 82.18C341.367 81.9533 341.633 81.84 341.94 81.84H346.38C346.487 81.84 346.56 81.7933 346.6 81.7C346.76 81.26 346.927 80.7667 347.1 80.22C347.193 79.9133 347.373 79.6733 347.64 79.5C347.907 79.3267 348.193 79.26 348.5 79.3C348.793 79.3267 349.02 79.4667 349.18 79.72C349.34 79.96 349.38 80.22 349.3 80.5C349.247 80.7133 349.113 81.1133 348.9 81.7C348.873 81.7933 348.913 81.84 349.02 81.84H355.06C355.367 81.84 355.633 81.9533 355.86 82.18C356.087 82.4067 356.2 82.6733 356.2 82.98V96.52C356.2 96.8133 356.093 97.0667 355.88 97.28C355.68 97.4933 355.427 97.6 355.12 97.6H354.92C354.68 97.6 354.473 97.5133 354.3 97.34C354.14 97.18 354.06 96.98 354.06 96.74C354.06 96.6467 354.013 96.6 353.92 96.6H343.08C342.987 96.6 342.94 96.6467 342.94 96.74C342.94 96.98 342.853 97.18 342.68 97.34C342.52 97.5133 342.32 97.6 342.08 97.6H341.88ZM342.94 83.82V86.04C342.94 86.1467 343 86.2 343.12 86.2H353.88C354 86.2 354.06 86.1467 354.06 86.04V83.82C354.06 83.7 354 83.64 353.88 83.64H343.12C343 83.64 342.94 83.7 342.94 83.82ZM342.94 88.08V90.32C342.94 90.44 343 90.5 343.12 90.5H353.88C354 90.5 354.06 90.44 354.06 90.32V88.08C354.06 87.96 354 87.9 353.88 87.9H343.12C343 87.9 342.94 87.96 342.94 88.08ZM342.94 92.38V94.68C342.94 94.8 343 94.86 343.12 94.86H353.88C354 94.86 354.06 94.8 354.06 94.68V92.38C354.06 92.26 354 92.2 353.88 92.2H343.12C343 92.2 342.94 92.26 342.94 92.38ZM360.62 92.46C360.367 92.4733 360.147 92.3933 359.96 92.22C359.787 92.0467 359.693 91.8333 359.68 91.58C359.667 91.3267 359.747 91.1067 359.92 90.92C360.093 90.7333 360.313 90.6333 360.58 90.62C360.7 90.62 360.873 90.62 361.1 90.62C361.327 90.6067 361.5 90.5933 361.62 90.58C361.74 90.58 361.8 90.52 361.8 90.4V82.54C361.8 82.2333 361.907 81.9667 362.12 81.74C362.347 81.5133 362.613 81.4 362.92 81.4H366.54C366.647 81.4 366.72 81.3467 366.76 81.24C366.907 80.8933 367.02 80.58 367.1 80.3C367.193 80.0067 367.373 79.7733 367.64 79.6C367.907 79.4267 368.193 79.3533 368.5 79.38C368.793 79.4067 369.02 79.54 369.18 79.78C369.34 80.02 369.373 80.2733 369.28 80.54C369.227 80.7 369.147 80.9267 369.04 81.22C369.013 81.34 369.047 81.4 369.14 81.4H374.26C374.567 81.4 374.833 81.5133 375.06 81.74C375.287 81.9667 375.4 82.2333 375.4 82.54V88.48C375.4 88.5733 375.44 88.5933 375.52 88.54C375.893 88.22 376.167 87.98 376.34 87.82C376.513 87.66 376.72 87.5933 376.96 87.62C377.2 87.6333 377.387 87.7333 377.52 87.92C377.667 88.12 377.733 88.3467 377.72 88.6C377.707 88.84 377.607 89.0467 377.42 89.22C376.767 89.8067 376.14 90.32 375.54 90.76C375.447 90.8267 375.4 90.92 375.4 91.04V94.6C375.4 95.0933 375.387 95.4867 375.36 95.78C375.347 96.0733 375.3 96.34 375.22 96.58C375.14 96.8333 375.04 97.0133 374.92 97.12C374.8 97.24 374.613 97.34 374.36 97.42C374.107 97.5 373.833 97.5467 373.54 97.56C373.247 97.5867 372.847 97.6 372.34 97.6C371.82 97.6 370.947 97.58 369.72 97.54C369.467 97.5267 369.253 97.4267 369.08 97.24C368.907 97.0667 368.813 96.8533 368.8 96.6C368.787 96.36 368.86 96.1533 369.02 95.98C369.193 95.8067 369.4 95.7267 369.64 95.74C370.733 95.78 371.52 95.8 372 95.8C372.6 95.8 372.953 95.7533 373.06 95.66C373.18 95.5533 373.24 95.2133 373.24 94.64V92.48C373.24 92.44 373.22 92.4133 373.18 92.4C373.14 92.3733 373.107 92.3733 373.08 92.4C369.587 94.5333 365.64 96.2333 361.24 97.5C360.973 97.5667 360.72 97.54 360.48 97.42C360.253 97.3133 360.093 97.1333 360 96.88C359.907 96.6533 359.92 96.4267 360.04 96.2C360.16 95.9867 360.34 95.8467 360.58 95.78C364.287 94.7933 367.667 93.4667 370.72 91.8C370.733 91.7867 370.74 91.7733 370.74 91.76C370.74 91.7467 370.727 91.74 370.7 91.74C367.487 92.0467 364.127 92.2867 360.62 92.46ZM363.94 83.32V84.32C363.94 84.44 364 84.5 364.12 84.5H373.08C373.187 84.5 373.24 84.44 373.24 84.32V83.32C373.24 83.2133 373.187 83.16 373.08 83.16H364.12C364 83.16 363.94 83.2133 363.94 83.32ZM363.94 86.18V87.24C363.94 87.3467 364 87.4 364.12 87.4H373.08C373.187 87.4 373.24 87.3467 373.24 87.24V86.18C373.24 86.06 373.187 86 373.08 86H364.12C364 86 363.94 86.06 363.94 86.18ZM363.94 89.08V90.3C363.94 90.4067 363.993 90.46 364.1 90.46C367.233 90.3133 370.22 90.1133 373.06 89.86C373.18 89.86 373.24 89.8 373.24 89.68V89.08C373.24 88.96 373.187 88.9 373.08 88.9H364.12C364 88.9 363.94 88.96 363.94 89.08ZM391.54 82.16C391.42 81.9467 391.393 81.72 391.46 81.48C391.527 81.24 391.667 81.0667 391.88 80.96C392.107 80.84 392.347 80.82 392.6 80.9C392.853 80.9667 393.04 81.1133 393.16 81.34C393.36 81.7 393.66 82.2533 394.06 83C394.18 83.2267 394.2 83.46 394.12 83.7C394.053 83.9267 393.907 84.0933 393.68 84.2C393.467 84.3067 393.233 84.32 392.98 84.24C392.74 84.16 392.56 84.0133 392.44 83.8C392.333 83.6133 392.18 83.34 391.98 82.98C391.78 82.62 391.633 82.3467 391.54 82.16ZM397.14 83C397.06 83.24 396.907 83.4133 396.68 83.52C396.453 83.6267 396.213 83.64 395.96 83.56C395.72 83.4667 395.54 83.3067 395.42 83.08C395.327 82.8933 395.173 82.62 394.96 82.26C394.747 81.9 394.593 81.6333 394.5 81.46C394.38 81.2333 394.353 81.0067 394.42 80.78C394.5 80.54 394.653 80.36 394.88 80.24C395.107 80.12 395.34 80.1 395.58 80.18C395.833 80.2467 396.027 80.3933 396.16 80.62C396.373 80.9933 396.68 81.5533 397.08 82.3C397.2 82.5133 397.22 82.7467 397.14 83ZM381.12 85.6C380.867 85.6 380.653 85.5133 380.48 85.34C380.307 85.1667 380.22 84.9533 380.22 84.7C380.22 84.4467 380.307 84.2333 380.48 84.06C380.653 83.8867 380.867 83.8 381.12 83.8H383.78C383.9 83.8 383.967 83.7533 383.98 83.66C384.273 82.3267 384.48 81.32 384.6 80.64C384.653 80.3733 384.787 80.16 385 80C385.227 79.84 385.473 79.7733 385.74 79.8C386.007 79.8267 386.22 79.9467 386.38 80.16C386.54 80.3733 386.6 80.6067 386.56 80.86C386.347 82.0867 386.173 83.0067 386.04 83.62C386.013 83.74 386.053 83.8 386.16 83.8H387.52C388.173 83.8 388.66 83.8 388.98 83.8C389.313 83.8 389.673 83.84 390.06 83.92C390.46 83.9867 390.733 84.0533 390.88 84.12C391.04 84.1733 391.213 84.32 391.4 84.56C391.6 84.7867 391.72 84.9933 391.76 85.18C391.813 85.3667 391.867 85.7 391.92 86.18C391.987 86.66 392.02 87.1 392.02 87.5C392.02 87.9 392.02 88.5 392.02 89.3C392.02 91.82 391.713 93.7 391.1 94.94C390.5 96.18 389.707 96.8 388.72 96.8C387.867 96.8 386.793 96.58 385.5 96.14C385.247 96.0467 385.06 95.88 384.94 95.64C384.82 95.3867 384.807 95.1267 384.9 94.86C384.993 94.6067 385.16 94.4267 385.4 94.32C385.64 94.2133 385.887 94.2067 386.14 94.3C387.087 94.6333 387.813 94.8 388.32 94.8C388.507 94.8 388.693 94.6867 388.88 94.46C389.067 94.2333 389.24 93.8933 389.4 93.44C389.56 92.9867 389.687 92.38 389.78 91.62C389.873 90.8467 389.92 89.9733 389.92 89C389.92 88.4667 389.92 88.0867 389.92 87.86C389.92 87.6333 389.907 87.36 389.88 87.04C389.853 86.72 389.833 86.5133 389.82 86.42C389.807 86.3267 389.753 86.2 389.66 86.04C389.567 85.88 389.493 85.7933 389.44 85.78C389.387 85.7533 389.26 85.72 389.06 85.68C388.873 85.6267 388.713 85.6 388.58 85.6C388.447 85.6 388.227 85.6 387.92 85.6H385.76C385.64 85.6 385.567 85.6533 385.54 85.76C384.647 89.3733 383.533 92.8 382.2 96.04C382.093 96.2933 381.907 96.4733 381.64 96.58C381.387 96.6867 381.133 96.6933 380.88 96.6C380.627 96.5067 380.447 96.3333 380.34 96.08C380.247 95.8267 380.253 95.5733 380.36 95.32C381.587 92.28 382.627 89.0933 383.48 85.76C383.507 85.6533 383.467 85.6 383.36 85.6H381.12ZM393.46 86.12C393.567 85.8667 393.747 85.6867 394 85.58C394.253 85.4733 394.507 85.4667 394.76 85.56C395.027 85.6533 395.213 85.8267 395.32 86.08C396.133 87.8933 396.873 89.7533 397.54 91.66C397.633 91.9267 397.613 92.1867 397.48 92.44C397.36 92.68 397.173 92.84 396.92 92.92C396.653 93 396.393 92.98 396.14 92.86C395.9 92.7267 395.733 92.5267 395.64 92.26C395.08 90.6867 394.36 88.8867 393.48 86.86C393.373 86.6067 393.367 86.36 393.46 86.12ZM264.72 112.72C264.973 112.973 265.28 113.1 265.64 113.1C266 113.1 266.307 112.973 266.56 112.72C266.813 112.467 266.94 112.16 266.94 111.8C266.94 111.44 266.813 111.133 266.56 110.88C266.307 110.627 266 110.5 265.64 110.5C265.28 110.5 264.973 110.627 264.72 110.88C264.467 111.133 264.34 111.44 264.34 111.8C264.34 112.16 264.467 112.467 264.72 112.72ZM263.66 109.82C264.207 109.273 264.867 109 265.64 109C266.413 109 267.073 109.273 267.62 109.82C268.167 110.367 268.44 111.027 268.44 111.8C268.44 112.373 268.28 112.893 267.96 113.36C267.64 113.827 267.227 114.167 266.72 114.38C266.627 114.42 266.593 114.487 266.62 114.58C266.633 114.62 266.64 114.68 266.64 114.76C266.64 114.907 266.58 115.033 266.46 115.14C266.353 115.247 266.227 115.3 266.08 115.3H259.92C259.8 115.3 259.74 115.36 259.74 115.48V124.3C259.74 125.473 259.587 126.213 259.28 126.52C258.987 126.84 258.273 127 257.14 127C256.593 127 255.833 126.953 254.86 126.86C254.607 126.833 254.393 126.713 254.22 126.5C254.06 126.3 253.993 126.067 254.02 125.8C254.047 125.547 254.16 125.34 254.36 125.18C254.573 125.02 254.813 124.953 255.08 124.98C255.773 125.047 256.307 125.08 256.68 125.08C257.107 125.08 257.353 125.033 257.42 124.94C257.5 124.847 257.54 124.54 257.54 124.02V115.48C257.54 115.36 257.48 115.3 257.36 115.3H251.2C250.933 115.3 250.707 115.207 250.52 115.02C250.333 114.833 250.24 114.613 250.24 114.36C250.24 114.093 250.333 113.867 250.52 113.68C250.707 113.493 250.933 113.4 251.2 113.4H257.36C257.48 113.4 257.54 113.34 257.54 113.22V111.3C257.54 110.993 257.647 110.733 257.86 110.52C258.087 110.307 258.347 110.2 258.64 110.2C258.933 110.2 259.187 110.307 259.4 110.52C259.627 110.733 259.74 110.993 259.74 111.3V113.22C259.74 113.34 259.8 113.4 259.92 113.4H262.7C262.927 113.4 263.093 113.407 263.2 113.42C263.227 113.42 263.247 113.407 263.26 113.38C263.287 113.353 263.293 113.327 263.28 113.3C262.987 112.833 262.84 112.333 262.84 111.8C262.84 111.027 263.113 110.367 263.66 109.82ZM251.44 124.62C251.16 124.713 250.887 124.7 250.62 124.58C250.353 124.46 250.173 124.267 250.08 124C249.987 123.733 250.007 123.467 250.14 123.2C250.913 121.68 251.693 120.02 252.48 118.22C252.6 117.953 252.793 117.76 253.06 117.64C253.327 117.52 253.6 117.507 253.88 117.6C254.147 117.693 254.34 117.873 254.46 118.14C254.58 118.393 254.587 118.647 254.48 118.9C253.733 120.633 252.927 122.36 252.06 124.08C251.927 124.333 251.72 124.513 251.44 124.62ZM264.84 124.12C264.253 122.733 263.46 120.993 262.46 118.9C262.34 118.647 262.327 118.387 262.42 118.12C262.527 117.853 262.707 117.667 262.96 117.56C263.227 117.453 263.493 117.453 263.76 117.56C264.04 117.653 264.247 117.827 264.38 118.08C265.207 119.773 266.013 121.52 266.8 123.32C266.92 123.587 266.92 123.86 266.8 124.14C266.693 124.407 266.507 124.593 266.24 124.7C265.973 124.807 265.7 124.807 265.42 124.7C265.153 124.58 264.96 124.387 264.84 124.12ZM285.88 113.84C286.147 113.893 286.36 114.04 286.52 114.28C286.68 114.507 286.733 114.753 286.68 115.02C285.893 118.74 284.42 121.52 282.26 123.36C280.1 125.187 276.98 126.333 272.9 126.8C272.62 126.827 272.367 126.753 272.14 126.58C271.913 126.407 271.78 126.18 271.74 125.9C271.7 125.633 271.76 125.393 271.92 125.18C272.093 124.953 272.313 124.827 272.58 124.8C276.26 124.373 279.02 123.4 280.86 121.88C282.7 120.347 283.973 117.947 284.68 114.68C284.747 114.4 284.893 114.18 285.12 114.02C285.347 113.847 285.6 113.787 285.88 113.84ZM282.82 109.88C283.033 109.773 283.247 109.753 283.46 109.82C283.687 109.887 283.853 110.02 283.96 110.22C284.427 111.06 284.7 111.553 284.78 111.7C284.887 111.9 284.907 112.12 284.84 112.36C284.773 112.587 284.633 112.747 284.42 112.84C284.207 112.933 283.987 112.94 283.76 112.86C283.547 112.78 283.387 112.64 283.28 112.44C282.827 111.613 282.56 111.127 282.48 110.98C282.373 110.78 282.353 110.573 282.42 110.36C282.487 110.147 282.62 109.987 282.82 109.88ZM285.68 109.58C285.893 109.473 286.113 109.453 286.34 109.52C286.567 109.587 286.74 109.727 286.86 109.94C287.353 110.833 287.633 111.34 287.7 111.46C287.807 111.673 287.82 111.893 287.74 112.12C287.673 112.333 287.533 112.493 287.32 112.6C287.107 112.693 286.887 112.707 286.66 112.64C286.433 112.56 286.267 112.413 286.16 112.2C285.987 111.867 285.713 111.367 285.34 110.7C285.233 110.5 285.207 110.287 285.26 110.06C285.327 109.833 285.467 109.673 285.68 109.58ZM271.76 118.02C271.493 117.967 271.28 117.833 271.12 117.62C270.96 117.393 270.907 117.147 270.96 116.88C271.013 116.613 271.153 116.4 271.38 116.24C271.62 116.08 271.873 116.027 272.14 116.08C274.033 116.427 275.567 116.72 276.74 116.96C277.007 117.013 277.213 117.153 277.36 117.38C277.507 117.607 277.553 117.853 277.5 118.12C277.447 118.387 277.307 118.6 277.08 118.76C276.853 118.907 276.607 118.953 276.34 118.9C275.18 118.66 273.653 118.367 271.76 118.02ZM272.64 113.12C272.373 113.067 272.16 112.933 272 112.72C271.853 112.493 271.807 112.247 271.86 111.98C271.913 111.713 272.053 111.5 272.28 111.34C272.507 111.167 272.753 111.107 273.02 111.16C274.02 111.333 275.633 111.633 277.86 112.06C278.127 112.113 278.34 112.253 278.5 112.48C278.66 112.707 278.713 112.953 278.66 113.22C278.607 113.487 278.46 113.7 278.22 113.86C277.98 114.007 277.727 114.053 277.46 114C275.74 113.667 274.133 113.373 272.64 113.12ZM293.26 111.3H303.74C304.007 111.3 304.233 111.393 304.42 111.58C304.607 111.767 304.7 111.987 304.7 112.24C304.7 112.507 304.607 112.733 304.42 112.92C304.233 113.107 304.007 113.2 303.74 113.2H293.26C292.993 113.2 292.767 113.107 292.58 112.92C292.393 112.733 292.3 112.507 292.3 112.24C292.3 111.987 292.393 111.767 292.58 111.58C292.767 111.393 292.993 111.3 293.26 111.3ZM290.94 118.6C290.687 118.6 290.467 118.507 290.28 118.32C290.093 118.133 290 117.907 290 117.64C290 117.373 290.087 117.153 290.26 116.98C290.447 116.793 290.673 116.7 290.94 116.7H306.04C306.307 116.7 306.533 116.793 306.72 116.98C306.907 117.167 307 117.387 307 117.64C307 117.907 306.9 118.133 306.7 118.32C306.513 118.507 306.293 118.6 306.04 118.6H300.46C300.353 118.6 300.3 118.653 300.3 118.76C300.273 120.907 299.787 122.62 298.84 123.9C297.893 125.18 296.413 126.127 294.4 126.74C294.133 126.82 293.873 126.787 293.62 126.64C293.38 126.507 293.213 126.307 293.12 126.04C293.04 125.787 293.06 125.547 293.18 125.32C293.3 125.08 293.493 124.913 293.76 124.82C295.307 124.3 296.407 123.573 297.06 122.64C297.727 121.707 298.073 120.413 298.1 118.76C298.1 118.653 298.04 118.6 297.92 118.6H290.94ZM313.2 121.52C312.947 121.573 312.713 121.52 312.5 121.36C312.287 121.2 312.16 120.993 312.12 120.74C312.08 120.487 312.133 120.26 312.28 120.06C312.44 119.86 312.647 119.733 312.9 119.68C314.833 119.32 316.713 118.707 318.54 117.84C320.367 116.96 321.947 115.92 323.28 114.72C323.467 114.547 323.687 114.473 323.94 114.5C324.193 114.513 324.4 114.613 324.56 114.8C324.733 115 324.813 115.233 324.8 115.5C324.787 115.753 324.68 115.967 324.48 116.14C323.387 117.113 322.087 118.02 320.58 118.86C320.487 118.9 320.453 118.98 320.48 119.1C320.507 119.207 320.52 119.287 320.52 119.34V125.88C320.52 126.173 320.413 126.42 320.2 126.62C319.987 126.833 319.733 126.94 319.44 126.94C319.147 126.94 318.893 126.833 318.68 126.62C318.48 126.42 318.38 126.173 318.38 125.88V120.1C318.38 119.98 318.327 119.947 318.22 120C316.567 120.693 314.893 121.2 313.2 121.52ZM333.14 124.72C336.433 124.253 338.88 123.187 340.48 121.52C342.093 119.853 343.013 117.4 343.24 114.16C343.24 114.053 343.187 114 343.08 114H331.4C331.12 114 330.88 113.907 330.68 113.72C330.493 113.52 330.4 113.28 330.4 113C330.4 112.72 330.493 112.487 330.68 112.3C330.88 112.1 331.12 112 331.4 112H343.2C343.24 112 343.273 111.98 343.3 111.94C343.327 111.9 343.327 111.867 343.3 111.84C343.233 111.72 343.133 111.547 343 111.32C342.867 111.08 342.767 110.9 342.7 110.78C342.593 110.58 342.573 110.373 342.64 110.16C342.707 109.947 342.84 109.787 343.04 109.68C343.253 109.573 343.473 109.553 343.7 109.62C343.927 109.687 344.093 109.827 344.2 110.04L344.98 111.48C345.353 112.2 345.52 112.92 345.48 113.64C345.307 117.587 344.24 120.613 342.28 122.72C340.32 124.827 337.393 126.147 333.5 126.68C333.22 126.72 332.967 126.653 332.74 126.48C332.513 126.32 332.373 126.1 332.32 125.82C332.267 125.567 332.32 125.333 332.48 125.12C332.653 124.893 332.873 124.76 333.14 124.72ZM347.08 109.74C347.453 110.407 347.733 110.913 347.92 111.26C348.027 111.473 348.04 111.693 347.96 111.92C347.893 112.133 347.753 112.293 347.54 112.4C347.327 112.493 347.107 112.507 346.88 112.44C346.653 112.36 346.487 112.213 346.38 112C346.207 111.667 345.933 111.167 345.56 110.5C345.453 110.3 345.427 110.087 345.48 109.86C345.547 109.633 345.687 109.473 345.9 109.38C346.113 109.273 346.333 109.253 346.56 109.32C346.787 109.387 346.96 109.527 347.08 109.74ZM361.48 122.64V122.48C361.48 122.373 361.44 122.3 361.36 122.26C360.493 121.847 359.7 121.64 358.98 121.64C357.313 121.64 356.48 122.227 356.48 123.4C356.48 124 356.7 124.467 357.14 124.8C357.58 125.133 358.193 125.3 358.98 125.3C359.94 125.3 360.593 125.113 360.94 124.74C361.3 124.367 361.48 123.667 361.48 122.64ZM366.6 112.88C366.853 112.907 367.053 113.02 367.2 113.22C367.347 113.42 367.407 113.647 367.38 113.9C367.353 114.14 367.24 114.333 367.04 114.48C366.84 114.627 366.62 114.687 366.38 114.66C365.407 114.54 364.507 114.473 363.68 114.46C363.547 114.46 363.48 114.513 363.48 114.62V121.18C363.48 121.26 363.533 121.34 363.64 121.42C364.747 122.073 365.813 122.833 366.84 123.7C367.04 123.873 367.147 124.093 367.16 124.36C367.173 124.613 367.093 124.84 366.92 125.04C366.747 125.24 366.527 125.353 366.26 125.38C365.993 125.393 365.753 125.313 365.54 125.14C364.767 124.513 364.12 124.013 363.6 123.64C363.507 123.573 363.447 123.593 363.42 123.7C363.273 124.86 362.84 125.7 362.12 126.22C361.413 126.74 360.367 127 358.98 127C357.567 127 356.46 126.673 355.66 126.02C354.873 125.38 354.48 124.507 354.48 123.4C354.48 122.32 354.867 121.467 355.64 120.84C356.427 120.213 357.54 119.9 358.98 119.9C359.713 119.9 360.493 120.047 361.32 120.34C361.427 120.367 361.48 120.327 361.48 120.22V113.74C361.48 113.433 361.593 113.167 361.82 112.94C362.047 112.713 362.313 112.607 362.62 112.62C364.167 112.66 365.493 112.747 366.6 112.88ZM351.28 124.16C351.04 124.267 350.793 124.273 350.54 124.18C350.287 124.087 350.107 123.92 350 123.68C349.893 123.44 349.893 123.2 350 122.96C351.173 120.107 352.187 117.307 353.04 114.56C353.067 114.453 353.027 114.4 352.92 114.4H350.96C350.707 114.4 350.493 114.313 350.32 114.14C350.147 113.967 350.06 113.753 350.06 113.5C350.06 113.247 350.147 113.033 350.32 112.86C350.493 112.687 350.707 112.6 350.96 112.6H353.44C353.56 112.6 353.633 112.547 353.66 112.44C353.927 111.507 354.1 110.893 354.18 110.6C354.247 110.333 354.393 110.127 354.62 109.98C354.847 109.82 355.093 109.76 355.36 109.8C355.613 109.827 355.807 109.947 355.94 110.16C356.087 110.373 356.133 110.607 356.08 110.86C355.987 111.22 355.847 111.747 355.66 112.44C355.633 112.547 355.673 112.6 355.78 112.6H358.26C358.513 112.6 358.727 112.687 358.9 112.86C359.073 113.033 359.16 113.247 359.16 113.5C359.16 113.753 359.073 113.967 358.9 114.14C358.727 114.313 358.513 114.4 358.26 114.4H355.26C355.167 114.4 355.093 114.46 355.04 114.58C354.133 117.593 353.06 120.6 351.82 123.6C351.713 123.853 351.533 124.04 351.28 124.16ZM370.22 122.24C369.993 122.24 369.8 122.16 369.64 122C369.48 121.84 369.4 121.647 369.4 121.42C369.4 121.193 369.48 121 369.64 120.84C369.8 120.68 369.993 120.6 370.22 120.6H377.18C377.287 120.6 377.34 120.547 377.34 120.44V119.78C377.34 119.66 377.287 119.6 377.18 119.6H371C370.773 119.6 370.58 119.52 370.42 119.36C370.273 119.2 370.2 119.013 370.2 118.8C370.2 118.587 370.273 118.4 370.42 118.24C370.58 118.08 370.773 118 371 118H377.18C377.287 118 377.34 117.94 377.34 117.82V117.36C377.34 117.253 377.287 117.2 377.18 117.2H373.04H372.08C371.773 117.2 371.507 117.087 371.28 116.86C371.053 116.633 370.94 116.367 370.94 116.06V114.34C370.94 114.033 371.053 113.767 371.28 113.54C371.507 113.313 371.773 113.2 372.08 113.2H377.18C377.287 113.2 377.34 113.14 377.34 113.02V112.56C377.34 112.453 377.287 112.4 377.18 112.4H370.42C370.193 112.4 370 112.32 369.84 112.16C369.68 112 369.6 111.807 369.6 111.58C369.6 111.353 369.68 111.16 369.84 111C370 110.827 370.193 110.74 370.42 110.74H377.18C377.287 110.74 377.34 110.687 377.34 110.58C377.34 110.287 377.447 110.033 377.66 109.82C377.873 109.607 378.133 109.5 378.44 109.5H378.56C378.867 109.5 379.127 109.607 379.34 109.82C379.553 110.033 379.66 110.287 379.66 110.58C379.66 110.687 379.713 110.74 379.82 110.74H386.58C386.807 110.74 387 110.827 387.16 111C387.32 111.16 387.4 111.353 387.4 111.58C387.4 111.807 387.32 112 387.16 112.16C387 112.32 386.807 112.4 386.58 112.4H379.82C379.713 112.4 379.66 112.453 379.66 112.56V113.02C379.66 113.14 379.713 113.2 379.82 113.2H384.92C385.227 113.2 385.493 113.313 385.72 113.54C385.947 113.767 386.06 114.033 386.06 114.34V116.06C386.06 116.367 385.947 116.633 385.72 116.86C385.493 117.087 385.227 117.2 384.92 117.2H379.82C379.713 117.2 379.66 117.253 379.66 117.36V117.82C379.66 117.94 379.713 118 379.82 118H385.16C385.467 118 385.733 118.113 385.96 118.34C386.187 118.567 386.3 118.833 386.3 119.14V120.44C386.3 120.547 386.353 120.6 386.46 120.6H386.78C387.007 120.6 387.2 120.68 387.36 120.84C387.52 121 387.6 121.193 387.6 121.42C387.6 121.647 387.52 121.84 387.36 122C387.2 122.16 387.007 122.24 386.78 122.24H386.46C386.353 122.24 386.3 122.3 386.3 122.42V124.8C386.3 125.093 386.2 125.347 386 125.56C385.8 125.76 385.553 125.86 385.26 125.86H385.06C384.82 125.86 384.613 125.773 384.44 125.6C384.28 125.427 384.2 125.22 384.2 124.98C384.2 124.9 384.153 124.86 384.06 124.86H379.82C379.713 124.86 379.66 124.913 379.66 125.02V125.3C379.66 126.393 379.5 127.067 379.18 127.32C378.873 127.573 378.047 127.7 376.7 127.7C376.407 127.7 375.707 127.68 374.6 127.64C374.36 127.627 374.153 127.533 373.98 127.36C373.82 127.2 373.733 127 373.72 126.76C373.707 126.533 373.78 126.333 373.94 126.16C374.113 126 374.313 125.927 374.54 125.94C375.447 125.98 376.087 126 376.46 126C376.913 126 377.173 125.98 377.24 125.94C377.307 125.887 377.34 125.727 377.34 125.46V125.02C377.34 124.913 377.287 124.86 377.18 124.86H370.98C370.767 124.86 370.58 124.787 370.42 124.64C370.273 124.48 370.2 124.293 370.2 124.08C370.2 123.867 370.273 123.687 370.42 123.54C370.58 123.38 370.767 123.3 370.98 123.3H377.18C377.287 123.3 377.34 123.24 377.34 123.12V122.42C377.34 122.3 377.287 122.24 377.18 122.24H370.22ZM379.66 114.88V115.64C379.66 115.747 379.713 115.8 379.82 115.8H383.78C383.9 115.8 383.96 115.747 383.96 115.64V114.88C383.96 114.76 383.9 114.7 383.78 114.7H379.82C379.713 114.7 379.66 114.76 379.66 114.88ZM379.66 119.78V120.44C379.66 120.547 379.713 120.6 379.82 120.6H384.02C384.14 120.6 384.2 120.547 384.2 120.44V119.78C384.2 119.66 384.14 119.6 384.02 119.6H379.82C379.713 119.6 379.66 119.66 379.66 119.78ZM379.66 122.42V123.12C379.66 123.24 379.713 123.3 379.82 123.3H384.02C384.14 123.3 384.2 123.24 384.2 123.12V122.42C384.2 122.3 384.14 122.24 384.02 122.24H379.82C379.713 122.24 379.66 122.3 379.66 122.42ZM377.18 115.8C377.287 115.8 377.34 115.747 377.34 115.64V114.88C377.34 114.76 377.287 114.7 377.18 114.7H373.22C373.1 114.7 373.04 114.76 373.04 114.88V115.64C373.04 115.747 373.1 115.8 373.22 115.8H377.18ZM391.14 113.8C390.913 113.8 390.713 113.72 390.54 113.56C390.38 113.387 390.3 113.187 390.3 112.96C390.3 112.733 390.38 112.533 390.54 112.36C390.713 112.187 390.913 112.1 391.14 112.1H394.5C394.607 112.1 394.687 112.04 394.74 111.92C394.953 111.387 395.107 110.98 395.2 110.7C395.293 110.433 395.46 110.233 395.7 110.1C395.94 109.953 396.2 109.913 396.48 109.98C396.733 110.033 396.927 110.187 397.06 110.44C397.193 110.68 397.213 110.927 397.12 111.18C397.093 111.247 397.047 111.367 396.98 111.54C396.927 111.713 396.88 111.847 396.84 111.94C396.813 112.047 396.853 112.1 396.96 112.1H404.44C404.667 112.1 404.867 112.187 405.04 112.36C405.213 112.533 405.3 112.733 405.3 112.96C405.3 113.187 405.213 113.387 405.04 113.56C404.867 113.72 404.667 113.8 404.44 113.8H396.28C396.16 113.8 396.08 113.847 396.04 113.94C395.973 114.1 395.693 114.753 395.2 115.9V115.94H395.24C396.107 115.58 396.893 115.4 397.6 115.4C399.213 115.4 400.32 116.173 400.92 117.72C400.973 117.813 401.04 117.853 401.12 117.84C402.213 117.6 403.347 117.407 404.52 117.26C404.76 117.233 404.973 117.293 405.16 117.44C405.36 117.587 405.467 117.78 405.48 118.02C405.493 118.273 405.42 118.5 405.26 118.7C405.113 118.887 404.92 118.993 404.68 119.02C403.507 119.18 402.46 119.36 401.54 119.56C401.42 119.587 401.373 119.653 401.4 119.76C401.493 120.413 401.553 121.173 401.58 122.04C401.593 122.333 401.493 122.587 401.28 122.8C401.08 123 400.833 123.1 400.54 123.1C400.247 123.1 400 123 399.8 122.8C399.6 122.587 399.493 122.333 399.48 122.04C399.453 121.24 399.427 120.653 399.4 120.28C399.4 120.187 399.34 120.153 399.22 120.18C396.607 121.033 395.3 122.007 395.3 123.1C395.3 123.42 395.36 123.693 395.48 123.92C395.6 124.147 395.827 124.36 396.16 124.56C396.493 124.76 396.993 124.913 397.66 125.02C398.34 125.113 399.187 125.16 400.2 125.16C401.387 125.16 402.733 125.053 404.24 124.84C404.48 124.813 404.7 124.873 404.9 125.02C405.1 125.167 405.207 125.36 405.22 125.6C405.247 125.853 405.18 126.08 405.02 126.28C404.873 126.493 404.673 126.613 404.42 126.64C403.087 126.813 401.68 126.9 400.2 126.9C397.72 126.9 395.933 126.607 394.84 126.02C393.747 125.447 393.2 124.54 393.2 123.3C393.2 121.22 395.087 119.6 398.86 118.44C398.98 118.413 399.013 118.34 398.96 118.22C398.787 117.807 398.553 117.52 398.26 117.36C397.98 117.2 397.627 117.12 397.2 117.12C396.573 117.12 395.833 117.42 394.98 118.02C394.127 118.62 393.26 119.487 392.38 120.62C392.207 120.847 391.98 120.987 391.7 121.04C391.42 121.08 391.167 121.027 390.94 120.88C390.713 120.733 390.573 120.527 390.52 120.26C390.48 119.98 390.54 119.733 390.7 119.52C391.993 117.64 393.06 115.78 393.9 113.94C393.913 113.913 393.907 113.887 393.88 113.86C393.867 113.82 393.84 113.8 393.8 113.8H391.14ZM250.18 146.56C249.94 146.56 249.733 146.473 249.56 146.3C249.387 146.127 249.3 145.92 249.3 145.68C249.3 145.44 249.387 145.233 249.56 145.06C249.733 144.887 249.94 144.8 250.18 144.8H256.22C256.34 144.8 256.4 144.747 256.4 144.64V142.82C256.4 142.7 256.34 142.64 256.22 142.64H251.92C251.693 142.64 251.5 142.56 251.34 142.4C251.18 142.24 251.1 142.047 251.1 141.82C251.1 141.593 251.18 141.4 251.34 141.24C251.5 141.08 251.693 141 251.92 141H256.22C256.34 141 256.4 140.94 256.4 140.82V140.6C256.4 140.307 256.507 140.053 256.72 139.84C256.947 139.613 257.207 139.5 257.5 139.5C257.793 139.5 258.047 139.613 258.26 139.84C258.487 140.053 258.6 140.307 258.6 140.6V140.82C258.6 140.94 258.66 141 258.78 141H262.18C262.46 141 262.7 141.1 262.9 141.3C263.1 141.5 263.2 141.74 263.2 142.02C263.2 142.047 263.213 142.073 263.24 142.1C263.267 142.113 263.287 142.113 263.3 142.1C263.727 141.727 264.2 141.267 264.72 140.72C264.907 140.52 265.14 140.407 265.42 140.38C265.7 140.34 265.953 140.4 266.18 140.56C266.393 140.707 266.513 140.913 266.54 141.18C266.567 141.433 266.493 141.653 266.32 141.84C265.307 142.893 264.233 143.847 263.1 144.7C263.073 144.713 263.067 144.733 263.08 144.76C263.093 144.787 263.113 144.8 263.14 144.8H266.82C267.06 144.8 267.267 144.887 267.44 145.06C267.613 145.233 267.7 145.44 267.7 145.68C267.7 145.92 267.613 146.127 267.44 146.3C267.267 146.473 267.06 146.56 266.82 146.56H260.52C260.387 146.56 260.273 146.587 260.18 146.64C259.127 147.267 257.967 147.88 256.7 148.48C256.687 148.493 256.68 148.507 256.68 148.52C256.68 148.533 256.693 148.54 256.72 148.54C260.373 148.26 263.34 147.893 265.62 147.44C265.86 147.387 266.087 147.427 266.3 147.56C266.513 147.68 266.647 147.86 266.7 148.1C266.767 148.327 266.733 148.54 266.6 148.74C266.48 148.94 266.3 149.067 266.06 149.12C263.273 149.653 259.573 150.053 254.96 150.32C254.84 150.32 254.767 150.38 254.74 150.5C254.713 150.687 254.687 150.833 254.66 150.94C254.633 151.047 254.68 151.1 254.8 151.1H264.58C264.887 151.1 265.14 151.213 265.34 151.44C265.54 151.667 265.627 151.927 265.6 152.22C265.427 153.887 265.22 155.087 264.98 155.82C264.753 156.553 264.467 157.02 264.12 157.22C263.787 157.433 263.247 157.54 262.5 157.54C261.607 157.54 260.347 157.507 258.72 157.44C258.453 157.427 258.227 157.327 258.04 157.14C257.853 156.953 257.753 156.733 257.74 156.48C257.727 156.227 257.807 156.013 257.98 155.84C258.153 155.667 258.367 155.587 258.62 155.6C260.047 155.667 261.107 155.7 261.8 155.7C262.08 155.7 262.273 155.687 262.38 155.66C262.5 155.633 262.613 155.527 262.72 155.34C262.84 155.14 262.927 154.88 262.98 154.56C263.047 154.24 263.127 153.727 263.22 153.02C263.233 152.98 263.22 152.94 263.18 152.9C263.14 152.86 263.1 152.84 263.06 152.84H254.4C254.293 152.84 254.227 152.893 254.2 153C254.173 153.093 254.127 153.26 254.06 153.5C254.007 153.74 253.96 153.92 253.92 154.04C253.827 154.347 253.647 154.587 253.38 154.76C253.113 154.92 252.827 154.973 252.52 154.92C252.24 154.88 252.027 154.74 251.88 154.5C251.733 154.26 251.7 154.007 251.78 153.74C252.113 152.607 252.393 151.46 252.62 150.3C252.633 150.26 252.62 150.227 252.58 150.2C252.553 150.173 252.52 150.167 252.48 150.18C251.6 150.487 251.067 150.667 250.88 150.72C250.613 150.8 250.353 150.78 250.1 150.66C249.86 150.54 249.687 150.347 249.58 150.08C249.487 149.84 249.493 149.6 249.6 149.36C249.72 149.12 249.907 148.967 250.16 148.9C252.213 148.313 254.24 147.553 256.24 146.62C256.253 146.607 256.26 146.593 256.26 146.58C256.26 146.567 256.247 146.56 256.22 146.56H250.18ZM258.6 142.82V144.64C258.6 144.747 258.66 144.8 258.78 144.8H259.46C259.553 144.8 259.653 144.767 259.76 144.7C260.867 143.993 261.787 143.347 262.52 142.76C262.547 142.733 262.553 142.707 262.54 142.68C262.527 142.653 262.507 142.64 262.48 142.64H258.78C258.66 142.64 258.6 142.7 258.6 142.82ZM272.44 156.28C272.227 156.44 271.98 156.5 271.7 156.46C271.433 156.433 271.22 156.313 271.06 156.1C270.9 155.887 270.833 155.647 270.86 155.38C270.9 155.113 271.027 154.9 271.24 154.74L281.62 146.74V146.72C281.62 146.707 281.613 146.7 281.6 146.7H272.74C272.487 146.7 272.273 146.613 272.1 146.44C271.927 146.267 271.84 146.053 271.84 145.8C271.84 145.547 271.927 145.333 272.1 145.16C272.273 144.987 272.487 144.9 272.74 144.9H283.48C283.76 144.9 284 145 284.2 145.2C284.4 145.4 284.5 145.64 284.5 145.92C284.5 146.6 284.233 147.153 283.7 147.58L280.06 150.46L280.04 150.48C280.053 150.493 280.067 150.5 280.08 150.5H280.14C280.54 150.5 280.86 150.673 281.1 151.02C281.34 151.353 281.587 152.007 281.84 152.98C282.053 153.807 282.28 154.327 282.52 154.54C282.773 154.74 283.247 154.84 283.94 154.84C284.46 154.84 284.98 154.793 285.5 154.7C285.753 154.66 285.98 154.707 286.18 154.84C286.393 154.973 286.527 155.16 286.58 155.4C286.633 155.653 286.587 155.887 286.44 156.1C286.307 156.313 286.113 156.44 285.86 156.48C284.98 156.627 284.273 156.7 283.74 156.7C282.593 156.7 281.747 156.507 281.2 156.12C280.667 155.747 280.28 155.08 280.04 154.12C279.827 153.307 279.613 152.753 279.4 152.46C279.2 152.153 278.947 152 278.64 152C278.347 152 277.92 152.193 277.36 152.58C276.813 152.953 275.173 154.187 272.44 156.28ZM274.94 140.52C277.38 140.853 279.8 141.04 282.2 141.08C282.467 141.093 282.687 141.193 282.86 141.38C283.047 141.553 283.14 141.767 283.14 142.02C283.14 142.273 283.047 142.493 282.86 142.68C282.687 142.867 282.473 142.953 282.22 142.94C279.9 142.873 277.407 142.667 274.74 142.32C274.487 142.293 274.28 142.18 274.12 141.98C273.973 141.78 273.913 141.553 273.94 141.3C273.967 141.047 274.073 140.847 274.26 140.7C274.46 140.553 274.687 140.493 274.94 140.52ZM299.34 155.06C299.567 154.593 299.68 154.173 299.68 153.8C299.68 152.8 298.827 152.3 297.12 152.3C296.36 152.3 295.767 152.433 295.34 152.7C294.927 152.953 294.72 153.253 294.72 153.6C294.72 154.093 295.02 154.493 295.62 154.8C296.22 155.093 297.153 155.24 298.42 155.24H299.1C299.207 155.24 299.287 155.18 299.34 155.06ZM292.14 150.2C291.927 150.307 291.707 150.327 291.48 150.26C291.267 150.193 291.107 150.06 291 149.86C290.893 149.647 290.867 149.427 290.92 149.2C290.987 148.973 291.12 148.8 291.32 148.68L300.68 142.88L300.7 142.86L300.68 142.84H292.9C292.66 142.84 292.453 142.76 292.28 142.6C292.107 142.427 292.02 142.22 292.02 141.98C292.02 141.74 292.107 141.533 292.28 141.36C292.453 141.187 292.66 141.1 292.9 141.1H303.54C303.793 141.1 304.007 141.187 304.18 141.36C304.353 141.533 304.447 141.747 304.46 142C304.487 142.573 304.24 143.013 303.72 143.32L297.34 147V147.02H297.38C298.407 146.807 299.387 146.7 300.32 146.7C302.347 146.7 303.833 147.073 304.78 147.82C305.74 148.567 306.22 149.68 306.22 151.16C306.22 153.027 305.547 154.467 304.2 155.48C302.853 156.493 300.927 157 298.42 157C296.487 157 295.033 156.707 294.06 156.12C293.1 155.533 292.62 154.693 292.62 153.6C292.62 152.76 293.02 152.053 293.82 151.48C294.62 150.893 295.753 150.6 297.22 150.6C298.753 150.6 299.853 150.86 300.52 151.38C301.187 151.887 301.52 152.627 301.52 153.6C301.52 153.947 301.46 154.32 301.34 154.72C301.327 154.76 301.333 154.793 301.36 154.82C301.387 154.847 301.42 154.853 301.46 154.84C303.14 154.28 303.98 153.133 303.98 151.4C303.98 150.347 303.647 149.58 302.98 149.1C302.313 148.607 301.193 148.36 299.62 148.36C297.167 148.36 294.673 148.973 292.14 150.2ZM310.72 141.9C310.493 141.9 310.293 141.813 310.12 141.64C309.947 141.467 309.86 141.267 309.86 141.04C309.86 140.813 309.947 140.62 310.12 140.46C310.293 140.287 310.493 140.2 310.72 140.2H316.78C317.087 140.2 317.353 140.313 317.58 140.54C317.807 140.767 317.92 141.033 317.92 141.34V146.7C317.92 147.113 317.88 147.427 317.8 147.64C317.787 147.667 317.793 147.687 317.82 147.7C317.847 147.713 317.873 147.713 317.9 147.7C318.073 147.647 318.26 147.627 318.46 147.64C318.753 147.68 318.98 147.82 319.14 148.06C319.3 148.3 319.333 148.56 319.24 148.84C319.24 148.853 319.233 148.88 319.22 148.92C319.207 148.947 319.193 148.967 319.18 148.98C319.153 149.087 319.193 149.14 319.3 149.14H324.68C324.987 149.14 325.247 149.253 325.46 149.48C325.687 149.707 325.8 149.973 325.8 150.28V156.62C325.8 156.927 325.693 157.18 325.48 157.38C325.28 157.593 325.033 157.7 324.74 157.7H324.36C324.173 157.7 324.007 157.627 323.86 157.48C323.727 157.347 323.66 157.187 323.66 157C323.66 156.933 323.627 156.9 323.56 156.9H313.76C313.693 156.9 313.66 156.933 313.66 157C313.66 157.187 313.587 157.347 313.44 157.48C313.307 157.627 313.147 157.7 312.96 157.7H312.58C312.287 157.7 312.033 157.593 311.82 157.38C311.62 157.18 311.52 156.927 311.52 156.62V150.28C311.52 149.973 311.627 149.707 311.84 149.48C312.067 149.253 312.333 149.14 312.64 149.14H316.68C316.787 149.14 316.86 149.093 316.9 149C316.98 148.813 317.033 148.667 317.06 148.56C317.1 148.427 317.16 148.307 317.24 148.2C317.253 148.187 317.253 148.167 317.24 148.14C317.227 148.1 317.207 148.087 317.18 148.1C316.913 148.167 316.44 148.2 315.76 148.2C315.613 148.2 315.073 148.187 314.14 148.16C313.82 148.147 313.54 148.033 313.3 147.82C313.073 147.593 312.953 147.32 312.94 147V146.94C312.94 146.9 312.92 146.873 312.88 146.86C312.84 146.833 312.8 146.827 312.76 146.84C312.267 147.013 311.673 147.213 310.98 147.44C310.753 147.507 310.533 147.487 310.32 147.38C310.107 147.26 309.967 147.087 309.9 146.86C309.833 146.647 309.853 146.44 309.96 146.24C310.08 146.027 310.253 145.887 310.48 145.82C311.973 145.38 313.28 144.92 314.4 144.44C314.587 144.36 314.773 144.367 314.96 144.46C315.16 144.54 315.287 144.68 315.34 144.88C315.473 145.4 315.307 145.773 314.84 146C314.24 146.267 313.9 146.413 313.82 146.44C313.807 146.453 313.8 146.473 313.8 146.5C313.8 146.513 313.807 146.52 313.82 146.52C314.673 146.547 315.133 146.56 315.2 146.56C315.52 146.56 315.707 146.54 315.76 146.5C315.827 146.46 315.86 146.327 315.86 146.1V142.08C315.86 141.96 315.8 141.9 315.68 141.9H312.16C312.133 141.9 312.12 141.913 312.12 141.94C312.12 141.967 312.127 141.987 312.14 142C312.713 142.333 313.207 142.633 313.62 142.9C313.807 143.02 313.92 143.2 313.96 143.44C314 143.667 313.947 143.867 313.8 144.04C313.653 144.227 313.46 144.34 313.22 144.38C312.993 144.42 312.78 144.373 312.58 144.24C312.007 143.867 311.473 143.533 310.98 143.24C310.767 143.107 310.64 142.92 310.6 142.68C310.56 142.427 310.62 142.2 310.78 142C310.807 141.973 310.813 141.953 310.8 141.94C310.787 141.913 310.767 141.9 310.74 141.9H310.72ZM323.66 155.08V153.96C323.66 153.853 323.6 153.8 323.48 153.8H313.84C313.72 153.8 313.66 153.853 313.66 153.96V155.08C313.66 155.187 313.72 155.24 313.84 155.24H323.48C323.6 155.24 323.66 155.187 323.66 155.08ZM323.48 150.84H313.84C313.72 150.84 313.66 150.9 313.66 151.02V152.08C313.66 152.2 313.72 152.26 313.84 152.26H323.48C323.6 152.26 323.66 152.2 323.66 152.08V151.02C323.66 150.9 323.6 150.84 323.48 150.84ZM325.82 140.2C326.127 140.2 326.393 140.313 326.62 140.54C326.847 140.767 326.96 141.033 326.96 141.34V146.7C326.96 147.38 326.84 147.8 326.6 147.96C326.373 148.12 325.78 148.2 324.82 148.2C324.673 148.2 324.133 148.187 323.2 148.16C322.88 148.147 322.6 148.033 322.36 147.82C322.133 147.593 322.013 147.32 322 147L321.98 146.86C321.98 146.82 321.96 146.787 321.92 146.76C321.88 146.733 321.84 146.727 321.8 146.74C321.307 146.913 320.713 147.113 320.02 147.34C319.793 147.407 319.573 147.387 319.36 147.28C319.147 147.16 319.007 146.987 318.94 146.76C318.873 146.547 318.893 146.34 319 146.14C319.12 145.927 319.293 145.787 319.52 145.72C321.013 145.28 322.32 144.82 323.44 144.34C323.627 144.26 323.82 144.267 324.02 144.36C324.22 144.44 324.347 144.58 324.4 144.78C324.453 145.007 324.433 145.227 324.34 145.44C324.247 145.653 324.093 145.813 323.88 145.92C323.72 145.987 323.48 146.087 323.16 146.22C322.84 146.34 322.653 146.413 322.6 146.44C322.587 146.453 322.58 146.467 322.58 146.48C322.58 146.493 322.593 146.5 322.62 146.5C322.887 146.513 323.207 146.527 323.58 146.54C323.953 146.553 324.18 146.56 324.26 146.56C324.58 146.56 324.767 146.54 324.82 146.5C324.887 146.46 324.92 146.327 324.92 146.1V142.08C324.92 141.96 324.86 141.9 324.74 141.9H321.3C321.273 141.9 321.26 141.913 321.26 141.94C321.26 141.953 321.267 141.967 321.28 141.98C321.507 142.113 321.967 142.4 322.66 142.84C322.847 142.973 322.96 143.153 323 143.38C323.04 143.607 322.987 143.807 322.84 143.98C322.693 144.167 322.5 144.28 322.26 144.32C322.02 144.36 321.8 144.313 321.6 144.18C321.093 143.847 320.553 143.507 319.98 143.16C319.78 143.04 319.66 142.86 319.62 142.62C319.593 142.38 319.653 142.173 319.8 142C319.827 141.933 319.807 141.9 319.74 141.9C319.513 141.9 319.32 141.813 319.16 141.64C319 141.467 318.92 141.267 318.92 141.04C318.92 140.813 319 140.62 319.16 140.46C319.333 140.287 319.533 140.2 319.76 140.2H325.82ZM329.56 150.82C329.347 150.78 329.173 150.673 329.04 150.5C328.92 150.313 328.88 150.107 328.92 149.88C329.253 148.093 329.507 146.32 329.68 144.56C329.707 144.333 329.807 144.153 329.98 144.02C330.153 143.873 330.347 143.807 330.56 143.82C330.773 143.833 330.953 143.927 331.1 144.1C331.247 144.273 331.307 144.473 331.28 144.7C331.08 146.727 330.827 148.547 330.52 150.16C330.48 150.373 330.367 150.547 330.18 150.68C329.993 150.813 329.787 150.86 329.56 150.82ZM333.36 157.5C333.16 157.7 332.92 157.8 332.64 157.8C332.36 157.8 332.113 157.7 331.9 157.5C331.7 157.3 331.6 157.06 331.6 156.78V140.82C331.6 140.54 331.7 140.3 331.9 140.1C332.113 139.9 332.36 139.8 332.64 139.8C332.92 139.8 333.16 139.9 333.36 140.1C333.56 140.3 333.66 140.54 333.66 140.82V142.58C333.66 142.607 333.667 142.62 333.68 142.62C333.707 142.62 333.727 142.613 333.74 142.6C333.887 142.373 334.1 142.26 334.38 142.26H334.92C335.027 142.26 335.093 142.2 335.12 142.08C335.133 142 335.147 141.873 335.16 141.7C335.187 141.527 335.207 141.4 335.22 141.32C335.26 141 335.4 140.733 335.64 140.52C335.893 140.307 336.18 140.2 336.5 140.2H345.9C346.207 140.2 346.453 140.313 346.64 140.54C346.84 140.767 346.92 141.027 346.88 141.32C346.867 141.4 346.847 141.527 346.82 141.7C346.807 141.873 346.793 142 346.78 142.08C346.767 142.12 346.773 142.16 346.8 142.2C346.84 142.24 346.88 142.26 346.92 142.26H347.28C347.493 142.26 347.673 142.333 347.82 142.48C347.98 142.627 348.06 142.807 348.06 143.02C348.06 143.233 347.98 143.42 347.82 143.58C347.673 143.727 347.493 143.8 347.28 143.8H346.68C346.587 143.8 346.527 143.853 346.5 143.96L346.38 144.68C346.327 145 346.173 145.267 345.92 145.48C345.68 145.693 345.393 145.8 345.06 145.8H336.6H335.68C335.52 145.8 335.387 145.773 335.28 145.72C335.253 145.707 335.22 145.713 335.18 145.74C335.153 145.753 335.147 145.773 335.16 145.8C335.187 145.88 335.22 146.007 335.26 146.18C335.3 146.353 335.327 146.48 335.34 146.56C335.367 146.667 335.427 146.693 335.52 146.64C335.707 146.547 335.88 146.5 336.04 146.5H345.72C346.027 146.5 346.293 146.613 346.52 146.84C346.747 147.067 346.86 147.333 346.86 147.64V153.32C346.86 153.627 346.747 153.893 346.52 154.12C346.293 154.347 346.027 154.46 345.72 154.46H343.64C343.573 154.46 343.567 154.473 343.62 154.5C344.927 154.967 346.087 155.46 347.1 155.98C347.327 156.087 347.473 156.26 347.54 156.5C347.62 156.74 347.593 156.973 347.46 157.2C347.327 157.413 347.133 157.553 346.88 157.62C346.64 157.687 346.413 157.66 346.2 157.54C345.213 157.033 344.067 156.513 342.76 155.98C342.48 155.873 342.28 155.687 342.16 155.42C342.053 155.14 342.067 154.867 342.2 154.6C342.227 154.573 342.227 154.547 342.2 154.52C342.187 154.48 342.16 154.46 342.12 154.46H339.64C339.573 154.46 339.553 154.5 339.58 154.58C339.713 154.82 339.747 155.073 339.68 155.34C339.613 155.607 339.46 155.807 339.22 155.94C338.167 156.567 336.927 157.113 335.5 157.58C335.26 157.66 335.02 157.64 334.78 157.52C334.553 157.413 334.387 157.247 334.28 157.02C334.187 156.807 334.187 156.587 334.28 156.36C334.387 156.147 334.553 156.007 334.78 155.94C336.14 155.513 337.3 155.047 338.26 154.54C338.273 154.527 338.28 154.513 338.28 154.5C338.28 154.473 338.273 154.46 338.26 154.46H336.96H336.04C335.733 154.46 335.467 154.347 335.24 154.12C335.027 153.893 334.92 153.627 334.92 153.32V149.12C334.92 149.04 334.853 148.987 334.72 148.96C334.56 148.947 334.42 148.88 334.3 148.76C334.18 148.627 334.107 148.473 334.08 148.3C333.92 147.447 333.793 146.8 333.7 146.36C333.687 146.36 333.673 146.353 333.66 146.34V156.78C333.66 157.06 333.56 157.3 333.36 157.5ZM336.96 148.18V148.58C336.96 148.7 337.02 148.76 337.14 148.76H344.6C344.707 148.76 344.76 148.7 344.76 148.58V148.18C344.76 148.06 344.707 148 344.6 148H337.14C337.02 148 336.96 148.06 336.96 148.18ZM336.96 150.22V150.64C336.96 150.747 337.02 150.8 337.14 150.8H344.6C344.707 150.8 344.76 150.747 344.76 150.64V150.22C344.76 150.1 344.707 150.04 344.6 150.04H337.14C337.02 150.04 336.96 150.1 336.96 150.22ZM336.96 152.28V152.68C336.96 152.8 337.02 152.86 337.14 152.86H344.6C344.707 152.86 344.76 152.8 344.76 152.68V152.28C344.76 152.16 344.707 152.1 344.6 152.1H337.14C337.02 152.1 336.96 152.16 336.96 152.28ZM342.12 141.68C342.12 141.733 342.113 141.8 342.1 141.88C342.087 141.96 342.073 142.027 342.06 142.08C342.047 142.12 342.053 142.16 342.08 142.2C342.12 142.24 342.16 142.26 342.2 142.26H344.48C344.587 142.26 344.653 142.2 344.68 142.08C344.68 142.027 344.687 141.96 344.7 141.88C344.713 141.8 344.727 141.733 344.74 141.68C344.767 141.56 344.713 141.5 344.58 141.5H342.32C342.213 141.5 342.147 141.56 342.12 141.68ZM341.76 143.98C341.76 144.02 341.753 144.087 341.74 144.18C341.727 144.26 341.713 144.32 341.7 144.36C341.673 144.493 341.72 144.56 341.84 144.56H344.1C344.207 144.56 344.273 144.493 344.3 144.36C344.313 144.32 344.327 144.26 344.34 144.18C344.353 144.087 344.367 144.02 344.38 143.98C344.407 143.86 344.36 143.8 344.24 143.8H341.96C341.853 143.8 341.787 143.86 341.76 143.98ZM337.24 141.68C337.24 141.72 337.233 141.787 337.22 141.88C337.207 141.973 337.193 142.04 337.18 142.08C337.153 142.2 337.2 142.26 337.32 142.26H339.86C339.967 142.26 340.033 142.2 340.06 142.08C340.087 141.893 340.107 141.76 340.12 141.68C340.147 141.56 340.1 141.5 339.98 141.5H337.44C337.333 141.5 337.267 141.56 337.24 141.68ZM336.9 143.96C336.887 144.013 336.873 144.08 336.86 144.16C336.847 144.24 336.84 144.307 336.84 144.36C336.813 144.493 336.86 144.56 336.98 144.56H339.48C339.6 144.56 339.673 144.493 339.7 144.36C339.713 144.307 339.727 144.24 339.74 144.16C339.753 144.08 339.76 144.013 339.76 143.96C339.787 143.853 339.74 143.8 339.62 143.8H337.1C336.993 143.8 336.927 143.853 336.9 143.96ZM334.38 143.8C334.1 143.8 333.887 143.68 333.74 143.44C333.727 143.427 333.707 143.42 333.68 143.42C333.667 143.42 333.66 143.433 333.66 143.46V144.38C333.66 144.487 333.707 144.527 333.8 144.5C334.093 144.433 334.353 144.473 334.58 144.62C334.66 144.673 334.713 144.653 334.74 144.56C334.753 144.493 334.767 144.393 334.78 144.26C334.807 144.127 334.827 144.027 334.84 143.96C334.867 143.853 334.82 143.8 334.7 143.8H334.38ZM351.14 143.8C350.913 143.8 350.713 143.72 350.54 143.56C350.38 143.387 350.3 143.187 350.3 142.96C350.3 142.733 350.38 142.533 350.54 142.36C350.713 142.187 350.913 142.1 351.14 142.1H354.5C354.607 142.1 354.687 142.04 354.74 141.92C354.953 141.387 355.107 140.98 355.2 140.7C355.293 140.433 355.46 140.233 355.7 140.1C355.94 139.953 356.2 139.913 356.48 139.98C356.733 140.033 356.927 140.187 357.06 140.44C357.193 140.68 357.213 140.927 357.12 141.18C357.093 141.247 357.047 141.367 356.98 141.54C356.927 141.713 356.88 141.847 356.84 141.94C356.813 142.047 356.853 142.1 356.96 142.1H364.44C364.667 142.1 364.867 142.187 365.04 142.36C365.213 142.533 365.3 142.733 365.3 142.96C365.3 143.187 365.213 143.387 365.04 143.56C364.867 143.72 364.667 143.8 364.44 143.8H356.28C356.16 143.8 356.08 143.847 356.04 143.94C355.973 144.1 355.693 144.753 355.2 145.9V145.94H355.24C356.107 145.58 356.893 145.4 357.6 145.4C359.213 145.4 360.32 146.173 360.92 147.72C360.973 147.813 361.04 147.853 361.12 147.84C362.213 147.6 363.347 147.407 364.52 147.26C364.76 147.233 364.973 147.293 365.16 147.44C365.36 147.587 365.467 147.78 365.48 148.02C365.493 148.273 365.42 148.5 365.26 148.7C365.113 148.887 364.92 148.993 364.68 149.02C363.507 149.18 362.46 149.36 361.54 149.56C361.42 149.587 361.373 149.653 361.4 149.76C361.493 150.413 361.553 151.173 361.58 152.04C361.593 152.333 361.493 152.587 361.28 152.8C361.08 153 360.833 153.1 360.54 153.1C360.247 153.1 360 153 359.8 152.8C359.6 152.587 359.493 152.333 359.48 152.04C359.453 151.24 359.427 150.653 359.4 150.28C359.4 150.187 359.34 150.153 359.22 150.18C356.607 151.033 355.3 152.007 355.3 153.1C355.3 153.42 355.36 153.693 355.48 153.92C355.6 154.147 355.827 154.36 356.16 154.56C356.493 154.76 356.993 154.913 357.66 155.02C358.34 155.113 359.187 155.16 360.2 155.16C361.387 155.16 362.733 155.053 364.24 154.84C364.48 154.813 364.7 154.873 364.9 155.02C365.1 155.167 365.207 155.36 365.22 155.6C365.247 155.853 365.18 156.08 365.02 156.28C364.873 156.493 364.673 156.613 364.42 156.64C363.087 156.813 361.68 156.9 360.2 156.9C357.72 156.9 355.933 156.607 354.84 156.02C353.747 155.447 353.2 154.54 353.2 153.3C353.2 151.22 355.087 149.6 358.86 148.44C358.98 148.413 359.013 148.34 358.96 148.22C358.787 147.807 358.553 147.52 358.26 147.36C357.98 147.2 357.627 147.12 357.2 147.12C356.573 147.12 355.833 147.42 354.98 148.02C354.127 148.62 353.26 149.487 352.38 150.62C352.207 150.847 351.98 150.987 351.7 151.04C351.42 151.08 351.167 151.027 350.94 150.88C350.713 150.733 350.573 150.527 350.52 150.26C350.48 149.98 350.54 149.733 350.7 149.52C351.993 147.64 353.06 145.78 353.9 143.94C353.913 143.913 353.907 143.887 353.88 143.86C353.867 143.82 353.84 143.8 353.8 143.8H351.14ZM371.64 149.44C371.76 149.413 371.82 149.34 371.82 149.22V145.12C371.82 145.013 371.76 144.96 371.64 144.96H370.46C370.207 144.96 369.993 144.873 369.82 144.7C369.647 144.513 369.56 144.293 369.56 144.04C369.56 143.787 369.647 143.58 369.82 143.42C369.993 143.247 370.207 143.16 370.46 143.16H371.64C371.76 143.16 371.82 143.1 371.82 142.98V140.84C371.82 140.547 371.92 140.3 372.12 140.1C372.32 139.9 372.567 139.8 372.86 139.8C373.153 139.8 373.4 139.9 373.6 140.1C373.813 140.3 373.92 140.547 373.92 140.84V142.98C373.92 143.1 373.973 143.16 374.08 143.16H375.06C375.313 143.16 375.527 143.247 375.7 143.42C375.873 143.58 375.96 143.787 375.96 144.04C375.96 144.293 375.873 144.513 375.7 144.7C375.527 144.873 375.313 144.96 375.06 144.96H374.08C373.973 144.96 373.92 145.013 373.92 145.12V148.58C373.92 148.687 373.967 148.727 374.06 148.7C374.127 148.673 374.233 148.64 374.38 148.6C374.54 148.547 374.653 148.507 374.72 148.48C374.947 148.4 375.153 148.42 375.34 148.54C375.54 148.647 375.66 148.813 375.7 149.04C375.74 149.307 375.693 149.56 375.56 149.8C375.427 150.027 375.24 150.187 375 150.28C374.747 150.373 374.44 150.48 374.08 150.6C373.973 150.64 373.92 150.72 373.92 150.84V154.7C373.92 156.02 373.8 156.833 373.56 157.14C373.333 157.447 372.72 157.6 371.72 157.6C371.613 157.6 371.253 157.587 370.64 157.56C370.387 157.547 370.173 157.447 370 157.26C369.827 157.087 369.733 156.873 369.72 156.62C369.707 156.393 369.78 156.2 369.94 156.04C370.113 155.88 370.313 155.807 370.54 155.82C370.82 155.833 371.127 155.84 371.46 155.84C371.633 155.84 371.733 155.793 371.76 155.7C371.8 155.607 371.82 155.307 371.82 154.8V151.48C371.82 151.373 371.767 151.333 371.66 151.36C371.18 151.493 370.82 151.587 370.58 151.64C370.327 151.693 370.1 151.647 369.9 151.5C369.7 151.353 369.587 151.153 369.56 150.9C369.533 150.633 369.6 150.387 369.76 150.16C369.933 149.933 370.153 149.793 370.42 149.74C370.553 149.7 370.753 149.647 371.02 149.58C371.3 149.513 371.507 149.467 371.64 149.44ZM383.62 149C383.727 149 383.78 148.947 383.78 148.84V147.32C383.78 147.213 383.727 147.16 383.62 147.16H377.04C376.787 147.16 376.573 147.073 376.4 146.9C376.227 146.727 376.14 146.513 376.14 146.26C376.14 146.007 376.227 145.793 376.4 145.62C376.573 145.447 376.787 145.36 377.04 145.36H380.66C380.78 145.36 380.84 145.3 380.84 145.18V143.32C380.84 143.213 380.78 143.16 380.66 143.16H377.52C377.28 143.16 377.073 143.073 376.9 142.9C376.727 142.727 376.64 142.52 376.64 142.28C376.64 142.04 376.727 141.833 376.9 141.66C377.073 141.487 377.28 141.4 377.52 141.4H380.66C380.78 141.4 380.84 141.34 380.84 141.22V140.48C380.84 140.187 380.94 139.933 381.14 139.72C381.353 139.507 381.613 139.4 381.92 139.4C382.213 139.4 382.46 139.507 382.66 139.72C382.873 139.92 382.98 140.173 382.98 140.48V141.22C382.98 141.34 383.04 141.4 383.16 141.4H386.16C386.4 141.4 386.607 141.487 386.78 141.66C386.953 141.833 387.04 142.04 387.04 142.28C387.04 142.52 386.953 142.727 386.78 142.9C386.607 143.073 386.4 143.16 386.16 143.16H383.16C383.04 143.16 382.98 143.213 382.98 143.32V145.18C382.98 145.3 383.04 145.36 383.16 145.36H386.84C387.093 145.36 387.307 145.447 387.48 145.62C387.653 145.793 387.74 146.007 387.74 146.26C387.74 146.513 387.653 146.727 387.48 146.9C387.307 147.073 387.093 147.16 386.84 147.16H386.12C386 147.16 385.94 147.213 385.94 147.32V148.84C385.94 148.947 386 149 386.12 149H386.84C387.093 149 387.307 149.087 387.48 149.26C387.653 149.433 387.74 149.647 387.74 149.9C387.74 150.153 387.653 150.367 387.48 150.54C387.307 150.713 387.093 150.8 386.84 150.8H386.12C386 150.8 385.94 150.86 385.94 150.98V154.64C385.94 155.147 385.933 155.547 385.92 155.84C385.907 156.12 385.86 156.387 385.78 156.64C385.7 156.893 385.607 157.073 385.5 157.18C385.393 157.287 385.22 157.38 384.98 157.46C384.74 157.553 384.48 157.607 384.2 157.62C383.933 157.633 383.567 157.64 383.1 157.64C382.513 157.64 381.98 157.627 381.5 157.6C381.233 157.587 381.007 157.487 380.82 157.3C380.647 157.127 380.553 156.907 380.54 156.64C380.527 156.4 380.607 156.193 380.78 156.02C380.953 155.86 381.16 155.787 381.4 155.8C381.813 155.827 382.26 155.84 382.74 155.84C383.26 155.84 383.56 155.793 383.64 155.7C383.733 155.607 383.78 155.273 383.78 154.7V150.98C383.78 150.86 383.727 150.8 383.62 150.8H377.04C376.787 150.8 376.573 150.713 376.4 150.54C376.227 150.367 376.14 150.153 376.14 149.9C376.14 149.647 376.227 149.433 376.4 149.26C376.573 149.087 376.787 149 377.04 149H383.62ZM380.62 153.52C380.807 153.72 380.893 153.953 380.88 154.22C380.867 154.487 380.76 154.713 380.56 154.9C380.373 155.073 380.147 155.16 379.88 155.16C379.627 155.147 379.407 155.047 379.22 154.86C378.687 154.287 378.127 153.727 377.54 153.18C377.353 152.993 377.253 152.773 377.24 152.52C377.24 152.253 377.333 152.027 377.52 151.84C377.72 151.653 377.953 151.56 378.22 151.56C378.487 151.547 378.72 151.633 378.92 151.82C379.507 152.367 380.073 152.933 380.62 153.52ZM391.72 145.4C391.453 145.467 391.193 145.427 390.94 145.28C390.7 145.12 390.553 144.907 390.5 144.64C390.433 144.373 390.473 144.12 390.62 143.88C390.78 143.627 390.993 143.473 391.26 143.42C394.78 142.58 397.46 142.16 399.3 142.16C404.367 142.16 406.9 144.273 406.9 148.5C406.9 153.487 402.933 156.08 395 156.28C394.72 156.293 394.473 156.2 394.26 156C394.06 155.813 393.947 155.58 393.92 155.3C393.907 155.033 393.987 154.8 394.16 154.6C394.347 154.4 394.573 154.293 394.84 154.28C398.227 154.2 400.707 153.7 402.28 152.78C403.853 151.847 404.64 150.487 404.64 148.7C404.64 147.167 404.193 146.033 403.3 145.3C402.407 144.567 401.007 144.2 399.1 144.2C397.54 144.2 395.08 144.6 391.72 145.4Z" fill="#373737"/>
</svg>
