<svg width="230" height="230" viewBox="0 0 230 230" fill="none" xmlns="http://www.w3.org/2000/svg">
<circle cx="115" cy="115" r="114.5" fill="white" stroke="#B9A68E"/>
<circle cx="115" cy="115" r="104" stroke="#B9A68E" stroke-width="2"/>
<path d="M56.031 115.2C53.9777 115.2 52.2977 114.52 50.991 113.16C49.6843 111.8 49.031 109.98 49.031 107.7C49.031 105.38 49.691 103.553 51.011 102.22C52.331 100.873 54.1377 100.2 56.431 100.2C57.3643 100.2 58.2243 100.267 59.011 100.4C59.2777 100.453 59.4977 100.587 59.671 100.8C59.8443 101.013 59.931 101.26 59.931 101.54C59.931 101.767 59.8377 101.953 59.651 102.1C59.4643 102.233 59.2577 102.273 59.031 102.22C58.3243 102.047 57.5243 101.96 56.631 101.96C54.911 101.96 53.5843 102.453 52.651 103.44C51.731 104.413 51.271 105.833 51.271 107.7C51.271 109.487 51.7243 110.893 52.631 111.92C53.5377 112.933 54.7377 113.44 56.231 113.44C56.9777 113.44 57.6977 113.333 58.391 113.12C58.4843 113.107 58.531 113.04 58.531 112.92V108.26C58.531 108.14 58.471 108.08 58.351 108.08H55.091C54.851 108.08 54.6443 108 54.471 107.84C54.311 107.667 54.231 107.46 54.231 107.22C54.231 106.98 54.311 106.78 54.471 106.62C54.6443 106.447 54.851 106.36 55.091 106.36H59.491C59.7977 106.36 60.0643 106.473 60.291 106.7C60.5177 106.927 60.631 107.193 60.631 107.5V113.16C60.631 113.507 60.531 113.827 60.331 114.12C60.1443 114.4 59.891 114.593 59.571 114.7C58.531 115.033 57.351 115.2 56.031 115.2ZM70.5777 109.8C70.5777 107.267 69.6577 106 67.8177 106C65.9777 106 65.0577 107.267 65.0577 109.8C65.0577 112.333 65.9777 113.6 67.8177 113.6C69.6577 113.6 70.5777 112.333 70.5777 109.8ZM71.4177 113.8C70.5511 114.733 69.3511 115.2 67.8177 115.2C66.2844 115.2 65.0844 114.733 64.2177 113.8C63.3511 112.853 62.9177 111.52 62.9177 109.8C62.9177 108.08 63.3511 106.753 64.2177 105.82C65.0844 104.873 66.2844 104.4 67.8177 104.4C69.3511 104.4 70.5511 104.873 71.4177 105.82C72.2844 106.753 72.7177 108.08 72.7177 109.8C72.7177 111.52 72.2844 112.853 71.4177 113.8ZM82.0621 109.8C82.0621 107.267 81.1421 106 79.3021 106C77.4621 106 76.5421 107.267 76.5421 109.8C76.5421 112.333 77.4621 113.6 79.3021 113.6C81.1421 113.6 82.0621 112.333 82.0621 109.8ZM82.9021 113.8C82.0354 114.733 80.8354 115.2 79.3021 115.2C77.7688 115.2 76.5688 114.733 75.7021 113.8C74.8354 112.853 74.4021 111.52 74.4021 109.8C74.4021 108.08 74.8354 106.753 75.7021 105.82C76.5688 104.873 77.7688 104.4 79.3021 104.4C80.8354 104.4 82.0354 104.873 82.9021 105.82C83.7688 106.753 84.2021 108.08 84.2021 109.8C84.2021 111.52 83.7688 112.853 82.9021 113.8ZM90.6865 106C88.9532 106 88.0865 107.267 88.0865 109.8C88.0865 111.08 88.3132 112.033 88.7665 112.66C89.2332 113.287 89.8732 113.6 90.6865 113.6C91.3932 113.6 91.9998 113.367 92.5065 112.9C93.0265 112.433 93.2865 111.9 93.2865 111.3V108.3C93.2865 107.7 93.0265 107.167 92.5065 106.7C91.9998 106.233 91.3932 106 90.6865 106ZM90.1865 115.2C88.9732 115.2 87.9665 114.713 87.1665 113.74C86.3798 112.767 85.9865 111.453 85.9865 109.8C85.9865 108.093 86.3665 106.767 87.1265 105.82C87.8998 104.873 88.9198 104.4 90.1865 104.4C91.3732 104.4 92.3865 104.827 93.2265 105.68C93.2398 105.693 93.2532 105.7 93.2665 105.7C93.2798 105.7 93.2865 105.693 93.2865 105.68V101.04C93.2865 100.747 93.3865 100.5 93.5865 100.3C93.7998 100.1 94.0532 100 94.3465 100C94.6398 100 94.8865 100.1 95.0865 100.3C95.2865 100.5 95.3865 100.747 95.3865 101.04V114.02C95.3865 114.287 95.2865 114.52 95.0865 114.72C94.8998 114.907 94.6732 115 94.4065 115C94.1398 115 93.9065 114.907 93.7065 114.72C93.5198 114.52 93.4198 114.287 93.4065 114.02L93.3865 113.72C93.3865 113.707 93.3798 113.7 93.3665 113.7C93.3532 113.7 93.3398 113.707 93.3265 113.72C92.8332 114.267 92.3465 114.653 91.8665 114.88C91.3865 115.093 90.8265 115.2 90.1865 115.2ZM108.031 108.6C106.484 109.64 105.711 110.607 105.711 111.5C105.711 112.82 106.611 113.48 108.411 113.48C109.651 113.48 110.811 113.18 111.891 112.58C111.931 112.567 111.951 112.533 111.951 112.48C111.964 112.427 111.957 112.387 111.931 112.36L108.271 108.64C108.191 108.56 108.111 108.547 108.031 108.6ZM108.911 101.88C108.257 101.88 107.751 102.02 107.391 102.3C107.044 102.567 106.871 102.933 106.871 103.4C106.871 103.787 106.964 104.14 107.151 104.46C107.337 104.78 107.777 105.307 108.471 106.04C108.551 106.12 108.631 106.127 108.711 106.06C109.631 105.447 110.237 104.96 110.531 104.6C110.824 104.227 110.971 103.827 110.971 103.4C110.971 102.387 110.284 101.88 108.911 101.88ZM108.311 115.2C105.111 115.2 103.511 114 103.511 111.6C103.511 110.88 103.751 110.193 104.231 109.54C104.711 108.873 105.544 108.133 106.731 107.32C106.824 107.24 106.837 107.167 106.771 107.1L106.691 107.02C105.371 105.687 104.711 104.48 104.711 103.4C104.711 102.427 105.077 101.653 105.811 101.08C106.544 100.493 107.577 100.2 108.911 100.2C110.257 100.2 111.277 100.473 111.971 101.02C112.664 101.567 113.011 102.327 113.011 103.3C113.011 104.007 112.784 104.673 112.331 105.3C111.877 105.927 111.091 106.613 109.971 107.36C109.931 107.373 109.911 107.407 109.911 107.46C109.911 107.513 109.924 107.553 109.951 107.58L112.691 110.42C112.704 110.447 112.724 110.453 112.751 110.44C112.791 110.427 112.811 110.407 112.811 110.38V107.78C112.811 107.5 112.911 107.26 113.111 107.06C113.311 106.86 113.551 106.76 113.831 106.76C114.111 106.76 114.351 106.86 114.551 107.06C114.751 107.26 114.851 107.5 114.851 107.78V112.5C114.851 112.607 114.891 112.7 114.971 112.78L116.331 114.18C116.477 114.327 116.504 114.5 116.411 114.7C116.331 114.9 116.184 115 115.971 115H115.651C114.864 115 114.217 114.733 113.711 114.2L113.551 114.02C113.484 113.953 113.391 113.94 113.271 113.98C111.631 114.793 109.977 115.2 108.311 115.2ZM125.541 114.68C125.327 114.893 125.074 115 124.781 115C124.487 115 124.234 114.893 124.021 114.68C123.807 114.467 123.701 114.213 123.701 113.92V101.48C123.701 101.187 123.807 100.933 124.021 100.72C124.234 100.507 124.487 100.4 124.781 100.4C125.487 100.4 126.027 100.713 126.401 101.34L132.081 111.28C132.081 111.293 132.094 111.3 132.121 111.3C132.134 111.3 132.141 111.293 132.141 111.28V101.48C132.141 101.187 132.247 100.933 132.461 100.72C132.674 100.507 132.927 100.4 133.221 100.4C133.514 100.4 133.767 100.507 133.981 100.72C134.194 100.933 134.301 101.187 134.301 101.48V113.92C134.301 114.213 134.194 114.467 133.981 114.68C133.767 114.893 133.514 115 133.221 115C132.514 115 131.974 114.687 131.601 114.06L125.901 104.12C125.901 104.107 125.894 104.1 125.881 104.1C125.867 104.1 125.861 104.107 125.861 104.12V113.92C125.861 114.213 125.754 114.467 125.541 114.68ZM141.387 105.96C139.867 105.96 139.014 106.86 138.827 108.66C138.801 108.78 138.854 108.84 138.987 108.84H143.467C143.574 108.84 143.627 108.78 143.627 108.66C143.547 106.86 142.801 105.96 141.387 105.96ZM141.887 115.2C140.221 115.2 138.934 114.747 138.027 113.84C137.134 112.933 136.687 111.587 136.687 109.8C136.687 108.013 137.087 106.667 137.887 105.76C138.701 104.853 139.867 104.4 141.387 104.4C144.161 104.4 145.594 106.027 145.687 109.28C145.701 109.6 145.587 109.867 145.347 110.08C145.107 110.293 144.827 110.4 144.507 110.4H138.967C138.861 110.4 138.807 110.453 138.807 110.56C138.967 112.613 140.061 113.64 142.087 113.64C142.794 113.64 143.487 113.527 144.167 113.3C144.367 113.233 144.554 113.26 144.727 113.38C144.901 113.5 144.987 113.667 144.987 113.88C144.987 114.133 144.907 114.36 144.747 114.56C144.587 114.76 144.381 114.893 144.127 114.96C143.394 115.12 142.647 115.2 141.887 115.2ZM149.438 113.9L147.298 105.7C147.231 105.42 147.285 105.167 147.458 104.94C147.645 104.713 147.878 104.6 148.158 104.6C148.491 104.6 148.785 104.707 149.038 104.92C149.291 105.133 149.451 105.4 149.518 105.72L151.038 113.18C151.038 113.193 151.045 113.2 151.058 113.2C151.071 113.2 151.078 113.193 151.078 113.18L152.538 105.72C152.605 105.4 152.765 105.133 153.018 104.92C153.285 104.707 153.578 104.6 153.898 104.6H154.418C154.751 104.6 155.045 104.707 155.298 104.92C155.565 105.133 155.725 105.4 155.778 105.72L157.238 113.18C157.238 113.193 157.245 113.2 157.258 113.2C157.271 113.2 157.278 113.193 157.278 113.18L158.798 105.68C158.865 105.373 159.018 105.12 159.258 104.92C159.511 104.707 159.798 104.6 160.118 104.6C160.398 104.6 160.625 104.713 160.798 104.94C160.971 105.153 161.018 105.393 160.938 105.66L158.798 113.9C158.718 114.22 158.545 114.487 158.278 114.7C158.011 114.9 157.711 115 157.378 115H156.958C156.638 115 156.345 114.893 156.078 114.68C155.825 114.467 155.665 114.2 155.598 113.88L154.138 106.62C154.138 106.607 154.131 106.6 154.118 106.6C154.105 106.6 154.098 106.607 154.098 106.62L152.638 113.88C152.585 114.2 152.425 114.467 152.158 114.68C151.905 114.893 151.611 115 151.278 115H150.858C150.538 115 150.238 114.9 149.958 114.7C149.691 114.487 149.518 114.22 149.438 113.9ZM164.349 102.8C164.122 102.8 163.922 102.72 163.749 102.56C163.589 102.387 163.509 102.187 163.509 101.96C163.509 101.733 163.589 101.533 163.749 101.36C163.922 101.187 164.122 101.1 164.349 101.1H167.709C167.816 101.1 167.896 101.04 167.949 100.92C168.162 100.387 168.316 99.98 168.409 99.7C168.502 99.4333 168.669 99.2333 168.909 99.1C169.149 98.9533 169.409 98.9133 169.689 98.98C169.942 99.0333 170.136 99.1867 170.269 99.44C170.402 99.68 170.422 99.9267 170.329 100.18C170.302 100.247 170.256 100.367 170.189 100.54C170.136 100.713 170.089 100.847 170.049 100.94C170.022 101.047 170.062 101.1 170.169 101.1H177.649C177.876 101.1 178.076 101.187 178.249 101.36C178.422 101.533 178.509 101.733 178.509 101.96C178.509 102.187 178.422 102.387 178.249 102.56C178.076 102.72 177.876 102.8 177.649 102.8H169.489C169.369 102.8 169.289 102.847 169.249 102.94C169.182 103.1 168.902 103.753 168.409 104.9V104.94H168.449C169.316 104.58 170.102 104.4 170.809 104.4C172.422 104.4 173.529 105.173 174.129 106.72C174.182 106.813 174.249 106.853 174.329 106.84C175.422 106.6 176.556 106.407 177.729 106.26C177.969 106.233 178.182 106.293 178.369 106.44C178.569 106.587 178.676 106.78 178.689 107.02C178.702 107.273 178.629 107.5 178.469 107.7C178.322 107.887 178.129 107.993 177.889 108.02C176.716 108.18 175.669 108.36 174.749 108.56C174.629 108.587 174.582 108.653 174.609 108.76C174.702 109.413 174.762 110.173 174.789 111.04C174.802 111.333 174.702 111.587 174.489 111.8C174.289 112 174.042 112.1 173.749 112.1C173.456 112.1 173.209 112 173.009 111.8C172.809 111.587 172.702 111.333 172.689 111.04C172.662 110.24 172.636 109.653 172.609 109.28C172.609 109.187 172.549 109.153 172.429 109.18C169.816 110.033 168.509 111.007 168.509 112.1C168.509 112.42 168.569 112.693 168.689 112.92C168.809 113.147 169.036 113.36 169.369 113.56C169.702 113.76 170.202 113.913 170.869 114.02C171.549 114.113 172.396 114.16 173.409 114.16C174.596 114.16 175.942 114.053 177.449 113.84C177.689 113.813 177.909 113.873 178.109 114.02C178.309 114.167 178.416 114.36 178.429 114.6C178.456 114.853 178.389 115.08 178.229 115.28C178.082 115.493 177.882 115.613 177.629 115.64C176.296 115.813 174.889 115.9 173.409 115.9C170.929 115.9 169.142 115.607 168.049 115.02C166.956 114.447 166.409 113.54 166.409 112.3C166.409 110.22 168.296 108.6 172.069 107.44C172.189 107.413 172.222 107.34 172.169 107.22C171.996 106.807 171.762 106.52 171.469 106.36C171.189 106.2 170.836 106.12 170.409 106.12C169.782 106.12 169.042 106.42 168.189 107.02C167.336 107.62 166.469 108.487 165.589 109.62C165.416 109.847 165.189 109.987 164.909 110.04C164.629 110.08 164.376 110.027 164.149 109.88C163.922 109.733 163.782 109.527 163.729 109.26C163.689 108.98 163.749 108.733 163.909 108.52C165.202 106.64 166.269 104.78 167.109 102.94C167.122 102.913 167.116 102.887 167.089 102.86C167.076 102.82 167.049 102.8 167.009 102.8H164.349ZM76.82 140.2C76.5667 140.2 76.3467 140.113 76.16 139.94C75.9867 139.767 75.9 139.547 75.9 139.28C75.9 139.013 75.9867 138.793 76.16 138.62C76.3467 138.447 76.5667 138.36 76.82 138.36H79.88C79.9867 138.36 80.04 138.3 80.04 138.18V133.82C80.04 133.7 79.9867 133.64 79.88 133.64H77.7C77.4467 133.64 77.2333 133.56 77.06 133.4C76.8867 133.227 76.8 133.013 76.8 132.76C76.8 132.507 76.8867 132.293 77.06 132.12C77.2333 131.933 77.4467 131.84 77.7 131.84H79.88C79.9867 131.84 80.04 131.787 80.04 131.68V129.98C80.04 129.673 80.1467 129.42 80.36 129.22C80.5733 129.007 80.8267 128.9 81.12 128.9C81.4133 128.9 81.6667 129.007 81.88 129.22C82.0933 129.42 82.2 129.673 82.2 129.98V131.68C82.2 131.787 82.26 131.84 82.38 131.84H87.64C87.7467 131.84 87.8 131.787 87.8 131.68V129.98C87.8 129.673 87.9067 129.42 88.12 129.22C88.3333 129.007 88.5867 128.9 88.88 128.9C89.1733 128.9 89.4267 129.007 89.64 129.22C89.8533 129.42 89.96 129.673 89.96 129.98V131.68C89.96 131.787 90.0133 131.84 90.12 131.84H92.3C92.5533 131.84 92.7667 131.933 92.94 132.12C93.1133 132.293 93.2 132.507 93.2 132.76C93.2 133.013 93.1133 133.227 92.94 133.4C92.7667 133.56 92.5533 133.64 92.3 133.64H90.12C90.0133 133.64 89.96 133.7 89.96 133.82V138.18C89.96 138.3 90.0133 138.36 90.12 138.36H93.18C93.4333 138.36 93.6467 138.447 93.82 138.62C94.0067 138.793 94.1 139.013 94.1 139.28C94.1 139.547 94.0067 139.767 93.82 139.94C93.6467 140.113 93.4333 140.2 93.18 140.2H76.82ZM82.2 133.82V138.18C82.2 138.3 82.26 138.36 82.38 138.36H87.64C87.7467 138.36 87.8 138.3 87.8 138.18V133.82C87.8 133.7 87.7467 133.64 87.64 133.64H82.38C82.26 133.64 82.2 133.7 82.2 133.82ZM81.68 141.54C81.88 141.353 82.1133 141.26 82.38 141.26C82.66 141.247 82.9 141.327 83.1 141.5C83.3 141.687 83.4 141.92 83.4 142.2C83.4133 142.467 83.3267 142.693 83.14 142.88C81.8067 144.213 80.2867 145.373 78.58 146.36C78.3267 146.507 78.06 146.547 77.78 146.48C77.5 146.427 77.2667 146.287 77.08 146.06C76.92 145.847 76.86 145.613 76.9 145.36C76.9533 145.107 77.0933 144.913 77.32 144.78C79.0267 143.767 80.48 142.687 81.68 141.54ZM86.98 141.58C87.18 141.367 87.42 141.247 87.7 141.22C87.9933 141.18 88.26 141.24 88.5 141.4C90.0333 142.4 91.4733 143.527 92.82 144.78C93.0333 144.967 93.14 145.2 93.14 145.48C93.14 145.76 93.04 146 92.84 146.2C92.64 146.4 92.4 146.5 92.12 146.5C91.84 146.5 91.6 146.407 91.4 146.22C90.1867 145.087 88.76 143.96 87.12 142.84C86.9067 142.693 86.7867 142.493 86.76 142.24C86.7333 141.987 86.8067 141.767 86.98 141.58ZM97.34 139.38C97.1133 139.54 96.8733 139.587 96.62 139.52C96.3667 139.44 96.18 139.273 96.06 139.02C95.9267 138.753 95.9 138.48 95.98 138.2C96.06 137.907 96.22 137.667 96.46 137.48C98.5667 135.933 100.16 134.14 101.24 132.1C101.267 132.073 101.267 132.047 101.24 132.02C101.227 131.98 101.2 131.96 101.16 131.96H97.1C96.86 131.96 96.6533 131.873 96.48 131.7C96.3067 131.527 96.22 131.32 96.22 131.08C96.22 130.84 96.3067 130.633 96.48 130.46C96.6533 130.287 96.86 130.2 97.1 130.2H101.94C102.047 130.2 102.12 130.147 102.16 130.04L102.4 129.38C102.507 129.073 102.693 128.833 102.96 128.66C103.227 128.473 103.52 128.387 103.84 128.4C104.133 128.427 104.36 128.56 104.52 128.8C104.68 129.027 104.713 129.28 104.62 129.56C104.607 129.613 104.58 129.693 104.54 129.8C104.5 129.907 104.473 129.987 104.46 130.04C104.433 130.147 104.473 130.2 104.58 130.2H113.14C113.38 130.2 113.587 130.287 113.76 130.46C113.933 130.633 114.02 130.84 114.02 131.08C114.02 131.32 113.933 131.527 113.76 131.7C113.587 131.873 113.38 131.96 113.14 131.96H103.84C103.72 131.96 103.64 132.013 103.6 132.12C103.373 132.573 103.08 133.1 102.72 133.7C102.693 133.727 102.687 133.76 102.7 133.8C102.727 133.84 102.76 133.86 102.8 133.86H111.54C111.847 133.86 112.113 133.973 112.34 134.2C112.567 134.413 112.68 134.673 112.68 134.98V143.8C112.68 145.027 112.527 145.793 112.22 146.1C111.927 146.407 111.16 146.56 109.92 146.56C109.8 146.56 109.647 146.553 109.46 146.54C109.287 146.54 109.04 146.533 108.72 146.52C108.413 146.507 108.12 146.493 107.84 146.48C107.587 146.467 107.373 146.373 107.2 146.2C107.04 146.04 106.953 145.833 106.94 145.58C106.927 145.34 107.007 145.14 107.18 144.98C107.353 144.807 107.56 144.727 107.8 144.74C108.64 144.78 109.233 144.8 109.58 144.8C110.033 144.8 110.293 144.78 110.36 144.74C110.44 144.687 110.48 144.52 110.48 144.24V142.88C110.48 142.76 110.42 142.7 110.3 142.7H101.84C101.733 142.7 101.68 142.76 101.68 142.88V145.5C101.68 145.793 101.567 146.047 101.34 146.26C101.127 146.487 100.867 146.6 100.56 146.6C100.267 146.6 100.013 146.493 99.8 146.28C99.5867 146.067 99.48 145.807 99.48 145.5V137.8C99.48 137.773 99.46 137.753 99.42 137.74C99.38 137.713 99.3533 137.713 99.34 137.74C98.62 138.393 97.9533 138.94 97.34 139.38ZM101.68 135.72V137.32C101.68 137.44 101.733 137.5 101.84 137.5H110.3C110.42 137.5 110.48 137.44 110.48 137.32V135.72C110.48 135.613 110.42 135.56 110.3 135.56H101.84C101.733 135.56 101.68 135.613 101.68 135.72ZM101.68 139.28V140.92C101.68 141.04 101.733 141.1 101.84 141.1H110.3C110.42 141.1 110.48 141.04 110.48 140.92V139.28C110.48 139.16 110.42 139.1 110.3 139.1H101.84C101.733 139.1 101.68 139.16 101.68 139.28ZM125.8 139.2C126.227 138.8 126.44 138.3 126.44 137.7C126.44 137.1 126.227 136.6 125.8 136.2C125.373 135.8 124.827 135.6 124.16 135.6C123.48 135.6 122.92 135.8 122.48 136.2C122.053 136.6 121.84 137.1 121.84 137.7C121.84 138.3 122.053 138.8 122.48 139.2C122.92 139.6 123.48 139.8 124.16 139.8C124.827 139.8 125.373 139.6 125.8 139.2ZM117.24 132.8C117.013 132.8 116.813 132.72 116.64 132.56C116.48 132.387 116.4 132.187 116.4 131.96C116.4 131.733 116.48 131.533 116.64 131.36C116.813 131.187 117.013 131.1 117.24 131.1H126.02C126.14 131.1 126.2 131.04 126.2 130.92V129.7C126.2 129.433 126.3 129.2 126.5 129C126.7 128.8 126.933 128.7 127.2 128.7C127.48 128.7 127.713 128.8 127.9 129C128.1 129.187 128.2 129.42 128.2 129.7V130.94C128.2 131.047 128.26 131.1 128.38 131.1H132.76C132.987 131.1 133.18 131.187 133.34 131.36C133.513 131.533 133.6 131.733 133.6 131.96C133.6 132.187 133.513 132.387 133.34 132.56C133.18 132.72 132.987 132.8 132.76 132.8H128.38C128.26 132.8 128.2 132.86 128.2 132.98V136.8C128.2 136.907 128.22 137.013 128.26 137.12C128.513 137.853 128.64 138.68 128.64 139.6C128.64 141.48 128.153 142.933 127.18 143.96C126.22 144.987 124.647 145.687 122.46 146.06C122.193 146.1 121.953 146.04 121.74 145.88C121.527 145.72 121.4 145.513 121.36 145.26C121.32 145.007 121.373 144.773 121.52 144.56C121.68 144.347 121.893 144.22 122.16 144.18C123.707 143.913 124.82 143.507 125.5 142.96C126.193 142.413 126.6 141.647 126.72 140.66C126.72 140.647 126.72 140.64 126.72 140.64L126.74 140.6C126.74 140.573 126.733 140.56 126.72 140.56L126.68 140.58C126.027 141.26 125.067 141.6 123.8 141.6C122.64 141.6 121.68 141.233 120.92 140.5C120.173 139.753 119.8 138.82 119.8 137.7C119.8 136.58 120.173 135.653 120.92 134.92C121.68 134.173 122.64 133.8 123.8 133.8C124.667 133.8 125.44 134 126.12 134.4H126.18C126.193 134.4 126.2 134.393 126.2 134.38V132.98C126.2 132.86 126.14 132.8 126.02 132.8H117.24ZM145.84 144.06C146.067 143.593 146.18 143.173 146.18 142.8C146.18 141.8 145.327 141.3 143.62 141.3C142.86 141.3 142.267 141.433 141.84 141.7C141.427 141.953 141.22 142.253 141.22 142.6C141.22 143.093 141.52 143.493 142.12 143.8C142.72 144.093 143.653 144.24 144.92 144.24H145.6C145.707 144.24 145.787 144.18 145.84 144.06ZM138.64 139.2C138.427 139.307 138.207 139.327 137.98 139.26C137.767 139.193 137.607 139.06 137.5 138.86C137.393 138.647 137.367 138.427 137.42 138.2C137.487 137.973 137.62 137.8 137.82 137.68L147.18 131.88L147.2 131.86L147.18 131.84H139.4C139.16 131.84 138.953 131.76 138.78 131.6C138.607 131.427 138.52 131.22 138.52 130.98C138.52 130.74 138.607 130.533 138.78 130.36C138.953 130.187 139.16 130.1 139.4 130.1H150.04C150.293 130.1 150.507 130.187 150.68 130.36C150.853 130.533 150.947 130.747 150.96 131C150.987 131.573 150.74 132.013 150.22 132.32L143.84 136V136.02H143.88C144.907 135.807 145.887 135.7 146.82 135.7C148.847 135.7 150.333 136.073 151.28 136.82C152.24 137.567 152.72 138.68 152.72 140.16C152.72 142.027 152.047 143.467 150.7 144.48C149.353 145.493 147.427 146 144.92 146C142.987 146 141.533 145.707 140.56 145.12C139.6 144.533 139.12 143.693 139.12 142.6C139.12 141.76 139.52 141.053 140.32 140.48C141.12 139.893 142.253 139.6 143.72 139.6C145.253 139.6 146.353 139.86 147.02 140.38C147.687 140.887 148.02 141.627 148.02 142.6C148.02 142.947 147.96 143.32 147.84 143.72C147.827 143.76 147.833 143.793 147.86 143.82C147.887 143.847 147.92 143.853 147.96 143.84C149.64 143.28 150.48 142.133 150.48 140.4C150.48 139.347 150.147 138.58 149.48 138.1C148.813 137.607 147.693 137.36 146.12 137.36C143.667 137.36 141.173 137.973 138.64 139.2Z" fill="#373737"/>
<path d="M110.752 71.88C110.379 71.1467 109.792 70.78 108.992 70.78C108.192 70.78 107.599 71.1467 107.212 71.88C106.839 72.6133 106.652 73.8867 106.652 75.7C106.652 77.5133 106.839 78.7867 107.212 79.52C107.599 80.2533 108.192 80.62 108.992 80.62C109.792 80.62 110.379 80.2533 110.752 79.52C111.139 78.7867 111.332 77.5133 111.332 75.7C111.332 73.8867 111.139 72.6133 110.752 71.88ZM113.352 81.44C112.406 82.6133 110.952 83.2 108.992 83.2C107.032 83.2 105.572 82.6133 104.612 81.44C103.666 80.2667 103.192 78.3533 103.192 75.7C103.192 73.0467 103.666 71.1333 104.612 69.96C105.572 68.7867 107.032 68.2 108.992 68.2C110.952 68.2 112.406 68.7867 113.352 69.96C114.312 71.1333 114.792 73.0467 114.792 75.7C114.792 78.3533 114.312 80.2667 113.352 81.44ZM118.2 83C117.893 83 117.627 82.8867 117.4 82.66C117.173 82.4333 117.06 82.1667 117.06 81.86V81.4C117.06 80.6533 117.36 80.0467 117.96 79.58C120.2 77.82 121.68 76.48 122.4 75.56C123.133 74.64 123.5 73.74 123.5 72.86C123.5 71.6333 122.82 71.02 121.46 71.02C120.633 71.02 119.62 71.2467 118.42 71.7C118.167 71.7933 117.927 71.7667 117.7 71.62C117.473 71.4733 117.36 71.2667 117.36 71V70.16C117.36 69.8133 117.46 69.5067 117.66 69.24C117.86 68.96 118.127 68.7733 118.46 68.68C119.673 68.36 120.84 68.2 121.96 68.2C123.573 68.2 124.813 68.5867 125.68 69.36C126.56 70.12 127 71.18 127 72.54C127 73.7133 126.627 74.8333 125.88 75.9C125.147 76.9533 123.707 78.3867 121.56 80.2C121.547 80.2133 121.54 80.2267 121.54 80.24C121.54 80.2533 121.547 80.26 121.56 80.26H125.94C126.247 80.26 126.507 80.3733 126.72 80.6C126.947 80.8267 127.06 81.0933 127.06 81.4V81.86C127.06 82.1667 126.947 82.4333 126.72 82.66C126.507 82.8867 126.247 83 125.94 83H118.2Z" fill="#B9A68E"/>
</svg>
