<svg width="230" height="230" viewBox="0 0 230 230" fill="none" xmlns="http://www.w3.org/2000/svg">
<circle cx="115" cy="115" r="114.5" fill="white" stroke="#B9A68E"/>
<circle cx="115" cy="115" r="104" stroke="#B9A68E" stroke-width="2"/>
<path d="M56.031 115.2C53.9777 115.2 52.2977 114.52 50.991 113.16C49.6843 111.8 49.031 109.98 49.031 107.7C49.031 105.38 49.691 103.553 51.011 102.22C52.331 100.873 54.1377 100.2 56.431 100.2C57.3643 100.2 58.2243 100.267 59.011 100.4C59.2777 100.453 59.4977 100.587 59.671 100.8C59.8443 101.013 59.931 101.26 59.931 101.54C59.931 101.767 59.8377 101.953 59.651 102.1C59.4643 102.233 59.2577 102.273 59.031 102.22C58.3243 102.047 57.5243 101.96 56.631 101.96C54.911 101.96 53.5843 102.453 52.651 103.44C51.731 104.413 51.271 105.833 51.271 107.7C51.271 109.487 51.7243 110.893 52.631 111.92C53.5377 112.933 54.7377 113.44 56.231 113.44C56.9777 113.44 57.6977 113.333 58.391 113.12C58.4843 113.107 58.531 113.04 58.531 112.92V108.26C58.531 108.14 58.471 108.08 58.351 108.08H55.091C54.851 108.08 54.6443 108 54.471 107.84C54.311 107.667 54.231 107.46 54.231 107.22C54.231 106.98 54.311 106.78 54.471 106.62C54.6443 106.447 54.851 106.36 55.091 106.36H59.491C59.7977 106.36 60.0643 106.473 60.291 106.7C60.5177 106.927 60.631 107.193 60.631 107.5V113.16C60.631 113.507 60.531 113.827 60.331 114.12C60.1443 114.4 59.891 114.593 59.571 114.7C58.531 115.033 57.351 115.2 56.031 115.2ZM70.5777 109.8C70.5777 107.267 69.6577 106 67.8177 106C65.9777 106 65.0577 107.267 65.0577 109.8C65.0577 112.333 65.9777 113.6 67.8177 113.6C69.6577 113.6 70.5777 112.333 70.5777 109.8ZM71.4177 113.8C70.5511 114.733 69.3511 115.2 67.8177 115.2C66.2844 115.2 65.0844 114.733 64.2177 113.8C63.3511 112.853 62.9177 111.52 62.9177 109.8C62.9177 108.08 63.3511 106.753 64.2177 105.82C65.0844 104.873 66.2844 104.4 67.8177 104.4C69.3511 104.4 70.5511 104.873 71.4177 105.82C72.2844 106.753 72.7177 108.08 72.7177 109.8C72.7177 111.52 72.2844 112.853 71.4177 113.8ZM82.0621 109.8C82.0621 107.267 81.1421 106 79.3021 106C77.4621 106 76.5421 107.267 76.5421 109.8C76.5421 112.333 77.4621 113.6 79.3021 113.6C81.1421 113.6 82.0621 112.333 82.0621 109.8ZM82.9021 113.8C82.0354 114.733 80.8354 115.2 79.3021 115.2C77.7688 115.2 76.5688 114.733 75.7021 113.8C74.8354 112.853 74.4021 111.52 74.4021 109.8C74.4021 108.08 74.8354 106.753 75.7021 105.82C76.5688 104.873 77.7688 104.4 79.3021 104.4C80.8354 104.4 82.0354 104.873 82.9021 105.82C83.7688 106.753 84.2021 108.08 84.2021 109.8C84.2021 111.52 83.7688 112.853 82.9021 113.8ZM90.6865 106C88.9532 106 88.0865 107.267 88.0865 109.8C88.0865 111.08 88.3132 112.033 88.7665 112.66C89.2332 113.287 89.8732 113.6 90.6865 113.6C91.3932 113.6 91.9998 113.367 92.5065 112.9C93.0265 112.433 93.2865 111.9 93.2865 111.3V108.3C93.2865 107.7 93.0265 107.167 92.5065 106.7C91.9998 106.233 91.3932 106 90.6865 106ZM90.1865 115.2C88.9732 115.2 87.9665 114.713 87.1665 113.74C86.3798 112.767 85.9865 111.453 85.9865 109.8C85.9865 108.093 86.3665 106.767 87.1265 105.82C87.8998 104.873 88.9198 104.4 90.1865 104.4C91.3732 104.4 92.3865 104.827 93.2265 105.68C93.2398 105.693 93.2532 105.7 93.2665 105.7C93.2798 105.7 93.2865 105.693 93.2865 105.68V101.04C93.2865 100.747 93.3865 100.5 93.5865 100.3C93.7998 100.1 94.0532 100 94.3465 100C94.6398 100 94.8865 100.1 95.0865 100.3C95.2865 100.5 95.3865 100.747 95.3865 101.04V114.02C95.3865 114.287 95.2865 114.52 95.0865 114.72C94.8998 114.907 94.6732 115 94.4065 115C94.1398 115 93.9065 114.907 93.7065 114.72C93.5198 114.52 93.4198 114.287 93.4065 114.02L93.3865 113.72C93.3865 113.707 93.3798 113.7 93.3665 113.7C93.3532 113.7 93.3398 113.707 93.3265 113.72C92.8332 114.267 92.3465 114.653 91.8665 114.88C91.3865 115.093 90.8265 115.2 90.1865 115.2ZM108.031 108.6C106.484 109.64 105.711 110.607 105.711 111.5C105.711 112.82 106.611 113.48 108.411 113.48C109.651 113.48 110.811 113.18 111.891 112.58C111.931 112.567 111.951 112.533 111.951 112.48C111.964 112.427 111.957 112.387 111.931 112.36L108.271 108.64C108.191 108.56 108.111 108.547 108.031 108.6ZM108.911 101.88C108.257 101.88 107.751 102.02 107.391 102.3C107.044 102.567 106.871 102.933 106.871 103.4C106.871 103.787 106.964 104.14 107.151 104.46C107.337 104.78 107.777 105.307 108.471 106.04C108.551 106.12 108.631 106.127 108.711 106.06C109.631 105.447 110.237 104.96 110.531 104.6C110.824 104.227 110.971 103.827 110.971 103.4C110.971 102.387 110.284 101.88 108.911 101.88ZM108.311 115.2C105.111 115.2 103.511 114 103.511 111.6C103.511 110.88 103.751 110.193 104.231 109.54C104.711 108.873 105.544 108.133 106.731 107.32C106.824 107.24 106.837 107.167 106.771 107.1L106.691 107.02C105.371 105.687 104.711 104.48 104.711 103.4C104.711 102.427 105.077 101.653 105.811 101.08C106.544 100.493 107.577 100.2 108.911 100.2C110.257 100.2 111.277 100.473 111.971 101.02C112.664 101.567 113.011 102.327 113.011 103.3C113.011 104.007 112.784 104.673 112.331 105.3C111.877 105.927 111.091 106.613 109.971 107.36C109.931 107.373 109.911 107.407 109.911 107.46C109.911 107.513 109.924 107.553 109.951 107.58L112.691 110.42C112.704 110.447 112.724 110.453 112.751 110.44C112.791 110.427 112.811 110.407 112.811 110.38V107.78C112.811 107.5 112.911 107.26 113.111 107.06C113.311 106.86 113.551 106.76 113.831 106.76C114.111 106.76 114.351 106.86 114.551 107.06C114.751 107.26 114.851 107.5 114.851 107.78V112.5C114.851 112.607 114.891 112.7 114.971 112.78L116.331 114.18C116.477 114.327 116.504 114.5 116.411 114.7C116.331 114.9 116.184 115 115.971 115H115.651C114.864 115 114.217 114.733 113.711 114.2L113.551 114.02C113.484 113.953 113.391 113.94 113.271 113.98C111.631 114.793 109.977 115.2 108.311 115.2ZM125.541 114.68C125.327 114.893 125.074 115 124.781 115C124.487 115 124.234 114.893 124.021 114.68C123.807 114.467 123.701 114.213 123.701 113.92V101.48C123.701 101.187 123.807 100.933 124.021 100.72C124.234 100.507 124.487 100.4 124.781 100.4C125.487 100.4 126.027 100.713 126.401 101.34L132.081 111.28C132.081 111.293 132.094 111.3 132.121 111.3C132.134 111.3 132.141 111.293 132.141 111.28V101.48C132.141 101.187 132.247 100.933 132.461 100.72C132.674 100.507 132.927 100.4 133.221 100.4C133.514 100.4 133.767 100.507 133.981 100.72C134.194 100.933 134.301 101.187 134.301 101.48V113.92C134.301 114.213 134.194 114.467 133.981 114.68C133.767 114.893 133.514 115 133.221 115C132.514 115 131.974 114.687 131.601 114.06L125.901 104.12C125.901 104.107 125.894 104.1 125.881 104.1C125.867 104.1 125.861 104.107 125.861 104.12V113.92C125.861 114.213 125.754 114.467 125.541 114.68ZM141.387 105.96C139.867 105.96 139.014 106.86 138.827 108.66C138.801 108.78 138.854 108.84 138.987 108.84H143.467C143.574 108.84 143.627 108.78 143.627 108.66C143.547 106.86 142.801 105.96 141.387 105.96ZM141.887 115.2C140.221 115.2 138.934 114.747 138.027 113.84C137.134 112.933 136.687 111.587 136.687 109.8C136.687 108.013 137.087 106.667 137.887 105.76C138.701 104.853 139.867 104.4 141.387 104.4C144.161 104.4 145.594 106.027 145.687 109.28C145.701 109.6 145.587 109.867 145.347 110.08C145.107 110.293 144.827 110.4 144.507 110.4H138.967C138.861 110.4 138.807 110.453 138.807 110.56C138.967 112.613 140.061 113.64 142.087 113.64C142.794 113.64 143.487 113.527 144.167 113.3C144.367 113.233 144.554 113.26 144.727 113.38C144.901 113.5 144.987 113.667 144.987 113.88C144.987 114.133 144.907 114.36 144.747 114.56C144.587 114.76 144.381 114.893 144.127 114.96C143.394 115.12 142.647 115.2 141.887 115.2ZM149.438 113.9L147.298 105.7C147.231 105.42 147.285 105.167 147.458 104.94C147.645 104.713 147.878 104.6 148.158 104.6C148.491 104.6 148.785 104.707 149.038 104.92C149.291 105.133 149.451 105.4 149.518 105.72L151.038 113.18C151.038 113.193 151.045 113.2 151.058 113.2C151.071 113.2 151.078 113.193 151.078 113.18L152.538 105.72C152.605 105.4 152.765 105.133 153.018 104.92C153.285 104.707 153.578 104.6 153.898 104.6H154.418C154.751 104.6 155.045 104.707 155.298 104.92C155.565 105.133 155.725 105.4 155.778 105.72L157.238 113.18C157.238 113.193 157.245 113.2 157.258 113.2C157.271 113.2 157.278 113.193 157.278 113.18L158.798 105.68C158.865 105.373 159.018 105.12 159.258 104.92C159.511 104.707 159.798 104.6 160.118 104.6C160.398 104.6 160.625 104.713 160.798 104.94C160.971 105.153 161.018 105.393 160.938 105.66L158.798 113.9C158.718 114.22 158.545 114.487 158.278 114.7C158.011 114.9 157.711 115 157.378 115H156.958C156.638 115 156.345 114.893 156.078 114.68C155.825 114.467 155.665 114.2 155.598 113.88L154.138 106.62C154.138 106.607 154.131 106.6 154.118 106.6C154.105 106.6 154.098 106.607 154.098 106.62L152.638 113.88C152.585 114.2 152.425 114.467 152.158 114.68C151.905 114.893 151.611 115 151.278 115H150.858C150.538 115 150.238 114.9 149.958 114.7C149.691 114.487 149.518 114.22 149.438 113.9ZM164.349 102.8C164.122 102.8 163.922 102.72 163.749 102.56C163.589 102.387 163.509 102.187 163.509 101.96C163.509 101.733 163.589 101.533 163.749 101.36C163.922 101.187 164.122 101.1 164.349 101.1H167.709C167.816 101.1 167.896 101.04 167.949 100.92C168.162 100.387 168.316 99.98 168.409 99.7C168.502 99.4333 168.669 99.2333 168.909 99.1C169.149 98.9533 169.409 98.9133 169.689 98.98C169.942 99.0333 170.136 99.1867 170.269 99.44C170.402 99.68 170.422 99.9267 170.329 100.18C170.302 100.247 170.256 100.367 170.189 100.54C170.136 100.713 170.089 100.847 170.049 100.94C170.022 101.047 170.062 101.1 170.169 101.1H177.649C177.876 101.1 178.076 101.187 178.249 101.36C178.422 101.533 178.509 101.733 178.509 101.96C178.509 102.187 178.422 102.387 178.249 102.56C178.076 102.72 177.876 102.8 177.649 102.8H169.489C169.369 102.8 169.289 102.847 169.249 102.94C169.182 103.1 168.902 103.753 168.409 104.9V104.94H168.449C169.316 104.58 170.102 104.4 170.809 104.4C172.422 104.4 173.529 105.173 174.129 106.72C174.182 106.813 174.249 106.853 174.329 106.84C175.422 106.6 176.556 106.407 177.729 106.26C177.969 106.233 178.182 106.293 178.369 106.44C178.569 106.587 178.676 106.78 178.689 107.02C178.702 107.273 178.629 107.5 178.469 107.7C178.322 107.887 178.129 107.993 177.889 108.02C176.716 108.18 175.669 108.36 174.749 108.56C174.629 108.587 174.582 108.653 174.609 108.76C174.702 109.413 174.762 110.173 174.789 111.04C174.802 111.333 174.702 111.587 174.489 111.8C174.289 112 174.042 112.1 173.749 112.1C173.456 112.1 173.209 112 173.009 111.8C172.809 111.587 172.702 111.333 172.689 111.04C172.662 110.24 172.636 109.653 172.609 109.28C172.609 109.187 172.549 109.153 172.429 109.18C169.816 110.033 168.509 111.007 168.509 112.1C168.509 112.42 168.569 112.693 168.689 112.92C168.809 113.147 169.036 113.36 169.369 113.56C169.702 113.76 170.202 113.913 170.869 114.02C171.549 114.113 172.396 114.16 173.409 114.16C174.596 114.16 175.942 114.053 177.449 113.84C177.689 113.813 177.909 113.873 178.109 114.02C178.309 114.167 178.416 114.36 178.429 114.6C178.456 114.853 178.389 115.08 178.229 115.28C178.082 115.493 177.882 115.613 177.629 115.64C176.296 115.813 174.889 115.9 173.409 115.9C170.929 115.9 169.142 115.607 168.049 115.02C166.956 114.447 166.409 113.54 166.409 112.3C166.409 110.22 168.296 108.6 172.069 107.44C172.189 107.413 172.222 107.34 172.169 107.22C171.996 106.807 171.762 106.52 171.469 106.36C171.189 106.2 170.836 106.12 170.409 106.12C169.782 106.12 169.042 106.42 168.189 107.02C167.336 107.62 166.469 108.487 165.589 109.62C165.416 109.847 165.189 109.987 164.909 110.04C164.629 110.08 164.376 110.027 164.149 109.88C163.922 109.733 163.782 109.527 163.729 109.26C163.689 108.98 163.749 108.733 163.909 108.52C165.202 106.64 166.269 104.78 167.109 102.94C167.122 102.913 167.116 102.887 167.089 102.86C167.076 102.82 167.049 102.8 167.009 102.8H164.349ZM93.9 131.76C94.1133 131.76 94.3 131.84 94.46 132C94.62 132.16 94.7 132.347 94.7 132.56C94.7 132.773 94.62 132.96 94.46 133.12C94.3 133.28 94.1133 133.36 93.9 133.36H92.38C92.26 133.36 92.2 133.413 92.2 133.52V134.02C92.2 134.447 92.0067 134.753 91.62 134.94C91.6067 134.953 91.6 134.967 91.6 134.98C91.6 134.993 91.6133 135 91.64 135H91.66C91.9667 135 92.2333 135.113 92.46 135.34C92.6867 135.567 92.8 135.833 92.8 136.14V142.32C92.8 142.627 92.6867 142.893 92.46 143.12C92.2333 143.347 91.9667 143.46 91.66 143.46H89.72C89.7067 143.46 89.7 143.467 89.7 143.48C89.7 143.493 89.7067 143.5 89.72 143.5C91.08 143.927 92.4067 144.42 93.7 144.98C93.9267 145.087 94.08 145.253 94.16 145.48C94.24 145.72 94.2133 145.953 94.08 146.18C93.9467 146.407 93.7467 146.553 93.48 146.62C93.2267 146.7 92.98 146.687 92.74 146.58C91.3933 145.953 89.8733 145.36 88.18 144.8C87.9267 144.72 87.74 144.56 87.62 144.32C87.5 144.067 87.4933 143.82 87.6 143.58C87.6267 143.5 87.6 143.46 87.52 143.46H83.46C83.38 143.46 83.36 143.493 83.4 143.56C83.52 143.773 83.54 144.007 83.46 144.26C83.3933 144.5 83.2533 144.673 83.04 144.78C81.68 145.487 80.04 146.1 78.12 146.62C77.8667 146.687 77.62 146.66 77.38 146.54C77.14 146.42 76.9667 146.24 76.86 146C76.7667 145.787 76.7733 145.567 76.88 145.34C76.9867 145.127 77.1533 144.987 77.38 144.92C79.0333 144.467 80.42 144 81.54 143.52C81.5533 143.507 81.56 143.493 81.56 143.48C81.56 143.467 81.5467 143.46 81.52 143.46H80.4H79.34C79.0333 143.46 78.7667 143.347 78.54 143.12C78.3133 142.893 78.2 142.627 78.2 142.32V136.84C78.2 136.813 78.1867 136.793 78.16 136.78C78.1467 136.767 78.1267 136.773 78.1 136.8C77.9267 136.987 77.7067 137.06 77.44 137.02C77.1867 136.967 77 136.827 76.88 136.6L76.86 136.54C76.5267 135.927 76.5667 135.287 76.98 134.62C77.6067 133.567 77.9667 132.273 78.06 130.74C78.0867 130.42 78.2067 130.147 78.42 129.92C78.6467 129.693 78.9133 129.573 79.22 129.56C81.1133 129.48 82.8667 129.287 84.48 128.98C84.72 128.927 84.9467 128.967 85.16 129.1C85.3733 129.22 85.5133 129.393 85.58 129.62C85.6467 129.847 85.62 130.06 85.5 130.26C85.3933 130.46 85.2267 130.58 85 130.62C83.5733 130.873 81.98 131.053 80.22 131.16C80.1 131.16 80.04 131.213 80.04 131.32C80.04 131.347 80.0333 131.393 80.02 131.46C80.02 131.513 80.02 131.553 80.02 131.58C80.02 131.7 80.0667 131.76 80.16 131.76H85C85.2267 131.76 85.4133 131.84 85.56 132C85.72 132.16 85.8 132.347 85.8 132.56C85.8 132.773 85.72 132.96 85.56 133.12C85.4133 133.28 85.2267 133.36 85 133.36H84.02C83.9133 133.36 83.86 133.413 83.86 133.52V134.02C83.86 134.447 83.6667 134.753 83.28 134.94C83.2667 134.953 83.26 134.967 83.26 134.98C83.26 134.993 83.2733 135 83.3 135H90.7C90.7267 135 90.74 134.993 90.74 134.98C90.74 134.967 90.7333 134.953 90.72 134.94C90.3467 134.767 90.16 134.46 90.16 134.02V133.52C90.16 133.413 90.1 133.36 89.98 133.36H88.26C88.14 133.36 88.0667 133.413 88.04 133.52C87.9733 133.747 87.88 134.007 87.76 134.3C87.64 134.58 87.4333 134.773 87.14 134.88C86.8467 134.973 86.5533 134.96 86.26 134.84C86.02 134.747 85.8533 134.573 85.76 134.32C85.68 134.067 85.7 133.813 85.82 133.56C86.14 132.867 86.34 131.92 86.42 130.72C86.4467 130.413 86.5667 130.147 86.78 129.92C87.0067 129.693 87.2733 129.573 87.58 129.56C89.4733 129.48 91.2267 129.287 92.84 128.98C93.08 128.927 93.3 128.967 93.5 129.1C93.7133 129.22 93.8533 129.393 93.92 129.62C93.9867 129.847 93.96 130.06 93.84 130.26C93.7333 130.46 93.5667 130.58 93.34 130.62C91.9 130.873 90.3133 131.053 88.58 131.16C88.46 131.16 88.4 131.213 88.4 131.32C88.4 131.347 88.3933 131.393 88.38 131.46C88.38 131.513 88.38 131.553 88.38 131.58C88.38 131.7 88.4267 131.76 88.52 131.76H93.9ZM79.34 135H82.36C82.3867 135 82.4 134.993 82.4 134.98C82.4 134.967 82.3933 134.953 82.38 134.94C81.9933 134.753 81.8 134.447 81.8 134.02V133.52C81.8 133.413 81.74 133.36 81.62 133.36H79.9C79.7667 133.36 79.6933 133.407 79.68 133.5C79.5467 134.033 79.4 134.487 79.24 134.86C79.2133 134.953 79.2467 135 79.34 135ZM90.6 141.68V141.16C90.6 141.053 90.54 141 90.42 141H80.58C80.46 141 80.4 141.053 80.4 141.16V141.68C80.4 141.787 80.46 141.84 80.58 141.84H90.42C90.54 141.84 90.6 141.787 90.6 141.68ZM90.6 139.48V138.96C90.6 138.853 90.54 138.8 90.42 138.8H80.58C80.46 138.8 80.4 138.853 80.4 138.96V139.48C80.4 139.587 80.46 139.64 80.58 139.64H90.42C90.54 139.64 90.6 139.587 90.6 139.48ZM90.6 137.28V136.76C90.6 136.653 90.54 136.6 90.42 136.6H80.58C80.46 136.6 80.4 136.653 80.4 136.76V137.28C80.4 137.387 80.46 137.44 80.58 137.44H90.42C90.54 137.44 90.6 137.387 90.6 137.28ZM98.14 146.34C97.94 146.54 97.6933 146.64 97.4 146.64C97.1067 146.64 96.86 146.54 96.66 146.34C96.46 146.14 96.36 145.893 96.36 145.6V130.34C96.36 130.033 96.4667 129.767 96.68 129.54C96.9067 129.313 97.1733 129.2 97.48 129.2H103.22C103.527 129.2 103.793 129.313 104.02 129.54C104.247 129.767 104.36 130.033 104.36 130.34V135.56C104.36 135.867 104.247 136.133 104.02 136.36C103.793 136.587 103.527 136.7 103.22 136.7H98.62C98.5 136.7 98.44 136.76 98.44 136.88V145.6C98.44 145.893 98.34 146.14 98.14 146.34ZM98.44 131.08V132.18C98.44 132.3 98.5 132.36 98.62 132.36H102.12C102.24 132.36 102.3 132.3 102.3 132.18V131.08C102.3 130.96 102.24 130.9 102.12 130.9H98.62C98.5 130.9 98.44 130.96 98.44 131.08ZM98.44 133.92V135.04C98.44 135.147 98.5 135.2 98.62 135.2H102.12C102.24 135.2 102.3 135.147 102.3 135.04V133.92C102.3 133.813 102.24 133.76 102.12 133.76H98.62C98.5 133.76 98.44 133.813 98.44 133.92ZM112.52 129.2C112.827 129.2 113.087 129.313 113.3 129.54C113.527 129.767 113.64 130.033 113.64 130.34V143.64C113.64 144.96 113.487 145.773 113.18 146.08C112.887 146.4 112.093 146.56 110.8 146.56C110.48 146.56 109.913 146.54 109.1 146.5C108.847 146.487 108.627 146.393 108.44 146.22C108.267 146.047 108.173 145.827 108.16 145.56C108.147 145.32 108.22 145.113 108.38 144.94C108.54 144.767 108.74 144.687 108.98 144.7C109.7 144.74 110.187 144.76 110.44 144.76C110.973 144.76 111.293 144.713 111.4 144.62C111.507 144.513 111.56 144.207 111.56 143.7V136.88C111.56 136.76 111.5 136.7 111.38 136.7H106.58C106.273 136.7 106.007 136.587 105.78 136.36C105.553 136.133 105.44 135.867 105.44 135.56V130.34C105.44 130.033 105.553 129.767 105.78 129.54C106.007 129.313 106.273 129.2 106.58 129.2H112.52ZM111.56 135.04V133.92C111.56 133.813 111.5 133.76 111.38 133.76H107.68C107.56 133.76 107.5 133.813 107.5 133.92V135.04C107.5 135.147 107.56 135.2 107.68 135.2H111.38C111.5 135.2 111.56 135.147 111.56 135.04ZM111.56 132.18V131.08C111.56 130.96 111.5 130.9 111.38 130.9H107.68C107.56 130.9 107.5 130.96 107.5 131.08V132.18C107.5 132.3 107.56 132.36 107.68 132.36H111.38C111.5 132.36 111.56 132.3 111.56 132.18ZM109.3 143.16C109.3 143.467 109.187 143.733 108.96 143.96C108.733 144.187 108.467 144.3 108.16 144.3H102.88C102.787 144.3 102.74 144.347 102.74 144.44C102.74 144.68 102.653 144.88 102.48 145.04C102.32 145.213 102.12 145.3 101.88 145.3H101.72C101.44 145.3 101.2 145.2 101 145C100.8 144.8 100.7 144.56 100.7 144.28V139.18C100.7 138.873 100.813 138.607 101.04 138.38C101.267 138.153 101.533 138.04 101.84 138.04H108.16C108.467 138.04 108.733 138.153 108.96 138.38C109.187 138.607 109.3 138.873 109.3 139.18V143.16ZM107.24 142.48V139.88C107.24 139.76 107.187 139.7 107.08 139.7H102.92C102.8 139.7 102.74 139.76 102.74 139.88V142.48C102.74 142.587 102.8 142.64 102.92 142.64H107.08C107.187 142.64 107.24 142.587 107.24 142.48ZM125.8 139.2C126.227 138.8 126.44 138.3 126.44 137.7C126.44 137.1 126.227 136.6 125.8 136.2C125.373 135.8 124.827 135.6 124.16 135.6C123.48 135.6 122.92 135.8 122.48 136.2C122.053 136.6 121.84 137.1 121.84 137.7C121.84 138.3 122.053 138.8 122.48 139.2C122.92 139.6 123.48 139.8 124.16 139.8C124.827 139.8 125.373 139.6 125.8 139.2ZM117.24 132.8C117.013 132.8 116.813 132.72 116.64 132.56C116.48 132.387 116.4 132.187 116.4 131.96C116.4 131.733 116.48 131.533 116.64 131.36C116.813 131.187 117.013 131.1 117.24 131.1H126.02C126.14 131.1 126.2 131.04 126.2 130.92V129.7C126.2 129.433 126.3 129.2 126.5 129C126.7 128.8 126.933 128.7 127.2 128.7C127.48 128.7 127.713 128.8 127.9 129C128.1 129.187 128.2 129.42 128.2 129.7V130.94C128.2 131.047 128.26 131.1 128.38 131.1H132.76C132.987 131.1 133.18 131.187 133.34 131.36C133.513 131.533 133.6 131.733 133.6 131.96C133.6 132.187 133.513 132.387 133.34 132.56C133.18 132.72 132.987 132.8 132.76 132.8H128.38C128.26 132.8 128.2 132.86 128.2 132.98V136.8C128.2 136.907 128.22 137.013 128.26 137.12C128.513 137.853 128.64 138.68 128.64 139.6C128.64 141.48 128.153 142.933 127.18 143.96C126.22 144.987 124.647 145.687 122.46 146.06C122.193 146.1 121.953 146.04 121.74 145.88C121.527 145.72 121.4 145.513 121.36 145.26C121.32 145.007 121.373 144.773 121.52 144.56C121.68 144.347 121.893 144.22 122.16 144.18C123.707 143.913 124.82 143.507 125.5 142.96C126.193 142.413 126.6 141.647 126.72 140.66C126.72 140.647 126.72 140.64 126.72 140.64L126.74 140.6C126.74 140.573 126.733 140.56 126.72 140.56L126.68 140.58C126.027 141.26 125.067 141.6 123.8 141.6C122.64 141.6 121.68 141.233 120.92 140.5C120.173 139.753 119.8 138.82 119.8 137.7C119.8 136.58 120.173 135.653 120.92 134.92C121.68 134.173 122.64 133.8 123.8 133.8C124.667 133.8 125.44 134 126.12 134.4H126.18C126.193 134.4 126.2 134.393 126.2 134.38V132.98C126.2 132.86 126.14 132.8 126.02 132.8H117.24ZM145.84 144.06C146.067 143.593 146.18 143.173 146.18 142.8C146.18 141.8 145.327 141.3 143.62 141.3C142.86 141.3 142.267 141.433 141.84 141.7C141.427 141.953 141.22 142.253 141.22 142.6C141.22 143.093 141.52 143.493 142.12 143.8C142.72 144.093 143.653 144.24 144.92 144.24H145.6C145.707 144.24 145.787 144.18 145.84 144.06ZM138.64 139.2C138.427 139.307 138.207 139.327 137.98 139.26C137.767 139.193 137.607 139.06 137.5 138.86C137.393 138.647 137.367 138.427 137.42 138.2C137.487 137.973 137.62 137.8 137.82 137.68L147.18 131.88L147.2 131.86L147.18 131.84H139.4C139.16 131.84 138.953 131.76 138.78 131.6C138.607 131.427 138.52 131.22 138.52 130.98C138.52 130.74 138.607 130.533 138.78 130.36C138.953 130.187 139.16 130.1 139.4 130.1H150.04C150.293 130.1 150.507 130.187 150.68 130.36C150.853 130.533 150.947 130.747 150.96 131C150.987 131.573 150.74 132.013 150.22 132.32L143.84 136V136.02H143.88C144.907 135.807 145.887 135.7 146.82 135.7C148.847 135.7 150.333 136.073 151.28 136.82C152.24 137.567 152.72 138.68 152.72 140.16C152.72 142.027 152.047 143.467 150.7 144.48C149.353 145.493 147.427 146 144.92 146C142.987 146 141.533 145.707 140.56 145.12C139.6 144.533 139.12 143.693 139.12 142.6C139.12 141.76 139.52 141.053 140.32 140.48C141.12 139.893 142.253 139.6 143.72 139.6C145.253 139.6 146.353 139.86 147.02 140.38C147.687 140.887 148.02 141.627 148.02 142.6C148.02 142.947 147.96 143.32 147.84 143.72C147.827 143.76 147.833 143.793 147.86 143.82C147.887 143.847 147.92 143.853 147.96 143.84C149.64 143.28 150.48 142.133 150.48 140.4C150.48 139.347 150.147 138.58 149.48 138.1C148.813 137.607 147.693 137.36 146.12 137.36C143.667 137.36 141.173 137.973 138.64 139.2Z" fill="#373737"/>
<path d="M110.752 71.88C110.379 71.1467 109.792 70.78 108.992 70.78C108.192 70.78 107.599 71.1467 107.212 71.88C106.839 72.6133 106.652 73.8867 106.652 75.7C106.652 77.5133 106.839 78.7867 107.212 79.52C107.599 80.2533 108.192 80.62 108.992 80.62C109.792 80.62 110.379 80.2533 110.752 79.52C111.139 78.7867 111.332 77.5133 111.332 75.7C111.332 73.8867 111.139 72.6133 110.752 71.88ZM113.352 81.44C112.406 82.6133 110.952 83.2 108.992 83.2C107.032 83.2 105.572 82.6133 104.612 81.44C103.666 80.2667 103.192 78.3533 103.192 75.7C103.192 73.0467 103.666 71.1333 104.612 69.96C105.572 68.7867 107.032 68.2 108.992 68.2C110.952 68.2 112.406 68.7867 113.352 69.96C114.312 71.1333 114.792 73.0467 114.792 75.7C114.792 78.3533 114.312 80.2667 113.352 81.44ZM118.34 74.26C118.153 74.4067 117.953 74.4267 117.74 74.32C117.54 74.2133 117.44 74.04 117.44 73.8V72.34C117.44 71.58 117.747 70.98 118.36 70.54L120.38 69.06C120.98 68.62 121.667 68.4 122.44 68.4H123.7C124.007 68.4 124.273 68.5133 124.5 68.74C124.727 68.9667 124.84 69.2333 124.84 69.54V81.86C124.84 82.1667 124.727 82.4333 124.5 82.66C124.273 82.8867 124.007 83 123.7 83H122.44C122.133 83 121.867 82.8867 121.64 82.66C121.413 82.4333 121.3 82.1667 121.3 81.86V72.14H121.28H121.26L118.34 74.26Z" fill="#B9A68E"/>
</svg>
