<svg width="230" height="230" viewBox="0 0 230 230" fill="none" xmlns="http://www.w3.org/2000/svg">
<circle cx="115" cy="115" r="114.5" fill="white" stroke="#B9A68E"/>
<circle cx="115" cy="115" r="104" stroke="#B9A68E" stroke-width="2"/>
<path d="M56.031 115.2C53.9777 115.2 52.2977 114.52 50.991 113.16C49.6843 111.8 49.031 109.98 49.031 107.7C49.031 105.38 49.691 103.553 51.011 102.22C52.331 100.873 54.1377 100.2 56.431 100.2C57.3643 100.2 58.2243 100.267 59.011 100.4C59.2777 100.453 59.4977 100.587 59.671 100.8C59.8443 101.013 59.931 101.26 59.931 101.54C59.931 101.767 59.8377 101.953 59.651 102.1C59.4643 102.233 59.2577 102.273 59.031 102.22C58.3243 102.047 57.5243 101.96 56.631 101.96C54.911 101.96 53.5843 102.453 52.651 103.44C51.731 104.413 51.271 105.833 51.271 107.7C51.271 109.487 51.7243 110.893 52.631 111.92C53.5377 112.933 54.7377 113.44 56.231 113.44C56.9777 113.44 57.6977 113.333 58.391 113.12C58.4843 113.107 58.531 113.04 58.531 112.92V108.26C58.531 108.14 58.471 108.08 58.351 108.08H55.091C54.851 108.08 54.6443 108 54.471 107.84C54.311 107.667 54.231 107.46 54.231 107.22C54.231 106.98 54.311 106.78 54.471 106.62C54.6443 106.447 54.851 106.36 55.091 106.36H59.491C59.7977 106.36 60.0643 106.473 60.291 106.7C60.5177 106.927 60.631 107.193 60.631 107.5V113.16C60.631 113.507 60.531 113.827 60.331 114.12C60.1443 114.4 59.891 114.593 59.571 114.7C58.531 115.033 57.351 115.2 56.031 115.2ZM70.5777 109.8C70.5777 107.267 69.6577 106 67.8177 106C65.9777 106 65.0577 107.267 65.0577 109.8C65.0577 112.333 65.9777 113.6 67.8177 113.6C69.6577 113.6 70.5777 112.333 70.5777 109.8ZM71.4177 113.8C70.5511 114.733 69.3511 115.2 67.8177 115.2C66.2844 115.2 65.0844 114.733 64.2177 113.8C63.3511 112.853 62.9177 111.52 62.9177 109.8C62.9177 108.08 63.3511 106.753 64.2177 105.82C65.0844 104.873 66.2844 104.4 67.8177 104.4C69.3511 104.4 70.5511 104.873 71.4177 105.82C72.2844 106.753 72.7177 108.08 72.7177 109.8C72.7177 111.52 72.2844 112.853 71.4177 113.8ZM82.0621 109.8C82.0621 107.267 81.1421 106 79.3021 106C77.4621 106 76.5421 107.267 76.5421 109.8C76.5421 112.333 77.4621 113.6 79.3021 113.6C81.1421 113.6 82.0621 112.333 82.0621 109.8ZM82.9021 113.8C82.0354 114.733 80.8354 115.2 79.3021 115.2C77.7688 115.2 76.5688 114.733 75.7021 113.8C74.8354 112.853 74.4021 111.52 74.4021 109.8C74.4021 108.08 74.8354 106.753 75.7021 105.82C76.5688 104.873 77.7688 104.4 79.3021 104.4C80.8354 104.4 82.0354 104.873 82.9021 105.82C83.7688 106.753 84.2021 108.08 84.2021 109.8C84.2021 111.52 83.7688 112.853 82.9021 113.8ZM90.6865 106C88.9532 106 88.0865 107.267 88.0865 109.8C88.0865 111.08 88.3132 112.033 88.7665 112.66C89.2332 113.287 89.8732 113.6 90.6865 113.6C91.3932 113.6 91.9998 113.367 92.5065 112.9C93.0265 112.433 93.2865 111.9 93.2865 111.3V108.3C93.2865 107.7 93.0265 107.167 92.5065 106.7C91.9998 106.233 91.3932 106 90.6865 106ZM90.1865 115.2C88.9732 115.2 87.9665 114.713 87.1665 113.74C86.3798 112.767 85.9865 111.453 85.9865 109.8C85.9865 108.093 86.3665 106.767 87.1265 105.82C87.8998 104.873 88.9198 104.4 90.1865 104.4C91.3732 104.4 92.3865 104.827 93.2265 105.68C93.2398 105.693 93.2532 105.7 93.2665 105.7C93.2798 105.7 93.2865 105.693 93.2865 105.68V101.04C93.2865 100.747 93.3865 100.5 93.5865 100.3C93.7998 100.1 94.0532 100 94.3465 100C94.6398 100 94.8865 100.1 95.0865 100.3C95.2865 100.5 95.3865 100.747 95.3865 101.04V114.02C95.3865 114.287 95.2865 114.52 95.0865 114.72C94.8998 114.907 94.6732 115 94.4065 115C94.1398 115 93.9065 114.907 93.7065 114.72C93.5198 114.52 93.4198 114.287 93.4065 114.02L93.3865 113.72C93.3865 113.707 93.3798 113.7 93.3665 113.7C93.3532 113.7 93.3398 113.707 93.3265 113.72C92.8332 114.267 92.3465 114.653 91.8665 114.88C91.3865 115.093 90.8265 115.2 90.1865 115.2ZM108.031 108.6C106.484 109.64 105.711 110.607 105.711 111.5C105.711 112.82 106.611 113.48 108.411 113.48C109.651 113.48 110.811 113.18 111.891 112.58C111.931 112.567 111.951 112.533 111.951 112.48C111.964 112.427 111.957 112.387 111.931 112.36L108.271 108.64C108.191 108.56 108.111 108.547 108.031 108.6ZM108.911 101.88C108.257 101.88 107.751 102.02 107.391 102.3C107.044 102.567 106.871 102.933 106.871 103.4C106.871 103.787 106.964 104.14 107.151 104.46C107.337 104.78 107.777 105.307 108.471 106.04C108.551 106.12 108.631 106.127 108.711 106.06C109.631 105.447 110.237 104.96 110.531 104.6C110.824 104.227 110.971 103.827 110.971 103.4C110.971 102.387 110.284 101.88 108.911 101.88ZM108.311 115.2C105.111 115.2 103.511 114 103.511 111.6C103.511 110.88 103.751 110.193 104.231 109.54C104.711 108.873 105.544 108.133 106.731 107.32C106.824 107.24 106.837 107.167 106.771 107.1L106.691 107.02C105.371 105.687 104.711 104.48 104.711 103.4C104.711 102.427 105.077 101.653 105.811 101.08C106.544 100.493 107.577 100.2 108.911 100.2C110.257 100.2 111.277 100.473 111.971 101.02C112.664 101.567 113.011 102.327 113.011 103.3C113.011 104.007 112.784 104.673 112.331 105.3C111.877 105.927 111.091 106.613 109.971 107.36C109.931 107.373 109.911 107.407 109.911 107.46C109.911 107.513 109.924 107.553 109.951 107.58L112.691 110.42C112.704 110.447 112.724 110.453 112.751 110.44C112.791 110.427 112.811 110.407 112.811 110.38V107.78C112.811 107.5 112.911 107.26 113.111 107.06C113.311 106.86 113.551 106.76 113.831 106.76C114.111 106.76 114.351 106.86 114.551 107.06C114.751 107.26 114.851 107.5 114.851 107.78V112.5C114.851 112.607 114.891 112.7 114.971 112.78L116.331 114.18C116.477 114.327 116.504 114.5 116.411 114.7C116.331 114.9 116.184 115 115.971 115H115.651C114.864 115 114.217 114.733 113.711 114.2L113.551 114.02C113.484 113.953 113.391 113.94 113.271 113.98C111.631 114.793 109.977 115.2 108.311 115.2ZM125.541 114.68C125.327 114.893 125.074 115 124.781 115C124.487 115 124.234 114.893 124.021 114.68C123.807 114.467 123.701 114.213 123.701 113.92V101.48C123.701 101.187 123.807 100.933 124.021 100.72C124.234 100.507 124.487 100.4 124.781 100.4C125.487 100.4 126.027 100.713 126.401 101.34L132.081 111.28C132.081 111.293 132.094 111.3 132.121 111.3C132.134 111.3 132.141 111.293 132.141 111.28V101.48C132.141 101.187 132.247 100.933 132.461 100.72C132.674 100.507 132.927 100.4 133.221 100.4C133.514 100.4 133.767 100.507 133.981 100.72C134.194 100.933 134.301 101.187 134.301 101.48V113.92C134.301 114.213 134.194 114.467 133.981 114.68C133.767 114.893 133.514 115 133.221 115C132.514 115 131.974 114.687 131.601 114.06L125.901 104.12C125.901 104.107 125.894 104.1 125.881 104.1C125.867 104.1 125.861 104.107 125.861 104.12V113.92C125.861 114.213 125.754 114.467 125.541 114.68ZM141.387 105.96C139.867 105.96 139.014 106.86 138.827 108.66C138.801 108.78 138.854 108.84 138.987 108.84H143.467C143.574 108.84 143.627 108.78 143.627 108.66C143.547 106.86 142.801 105.96 141.387 105.96ZM141.887 115.2C140.221 115.2 138.934 114.747 138.027 113.84C137.134 112.933 136.687 111.587 136.687 109.8C136.687 108.013 137.087 106.667 137.887 105.76C138.701 104.853 139.867 104.4 141.387 104.4C144.161 104.4 145.594 106.027 145.687 109.28C145.701 109.6 145.587 109.867 145.347 110.08C145.107 110.293 144.827 110.4 144.507 110.4H138.967C138.861 110.4 138.807 110.453 138.807 110.56C138.967 112.613 140.061 113.64 142.087 113.64C142.794 113.64 143.487 113.527 144.167 113.3C144.367 113.233 144.554 113.26 144.727 113.38C144.901 113.5 144.987 113.667 144.987 113.88C144.987 114.133 144.907 114.36 144.747 114.56C144.587 114.76 144.381 114.893 144.127 114.96C143.394 115.12 142.647 115.2 141.887 115.2ZM149.438 113.9L147.298 105.7C147.231 105.42 147.285 105.167 147.458 104.94C147.645 104.713 147.878 104.6 148.158 104.6C148.491 104.6 148.785 104.707 149.038 104.92C149.291 105.133 149.451 105.4 149.518 105.72L151.038 113.18C151.038 113.193 151.045 113.2 151.058 113.2C151.071 113.2 151.078 113.193 151.078 113.18L152.538 105.72C152.605 105.4 152.765 105.133 153.018 104.92C153.285 104.707 153.578 104.6 153.898 104.6H154.418C154.751 104.6 155.045 104.707 155.298 104.92C155.565 105.133 155.725 105.4 155.778 105.72L157.238 113.18C157.238 113.193 157.245 113.2 157.258 113.2C157.271 113.2 157.278 113.193 157.278 113.18L158.798 105.68C158.865 105.373 159.018 105.12 159.258 104.92C159.511 104.707 159.798 104.6 160.118 104.6C160.398 104.6 160.625 104.713 160.798 104.94C160.971 105.153 161.018 105.393 160.938 105.66L158.798 113.9C158.718 114.22 158.545 114.487 158.278 114.7C158.011 114.9 157.711 115 157.378 115H156.958C156.638 115 156.345 114.893 156.078 114.68C155.825 114.467 155.665 114.2 155.598 113.88L154.138 106.62C154.138 106.607 154.131 106.6 154.118 106.6C154.105 106.6 154.098 106.607 154.098 106.62L152.638 113.88C152.585 114.2 152.425 114.467 152.158 114.68C151.905 114.893 151.611 115 151.278 115H150.858C150.538 115 150.238 114.9 149.958 114.7C149.691 114.487 149.518 114.22 149.438 113.9ZM178.229 101.24C178.482 101.24 178.696 101.333 178.869 101.52C179.056 101.693 179.149 101.913 179.149 102.18C179.149 102.433 179.062 102.653 178.889 102.84C178.716 103.013 178.496 103.1 178.229 103.1H171.529C171.276 103.1 171.056 103.013 170.869 102.84C170.696 102.653 170.609 102.433 170.609 102.18C170.609 101.913 170.696 101.693 170.869 101.52C171.056 101.333 171.276 101.24 171.529 101.24H178.229ZM166.049 115.9C165.756 115.94 165.482 115.88 165.229 115.72C164.989 115.56 164.836 115.333 164.769 115.04C164.262 112.8 164.009 110.387 164.009 107.8C164.009 105.213 164.262 102.8 164.769 100.56C164.836 100.267 164.989 100.04 165.229 99.88C165.482 99.72 165.756 99.66 166.049 99.7C166.316 99.7267 166.529 99.86 166.689 100.1C166.849 100.327 166.896 100.573 166.829 100.84C166.349 102.947 166.109 105.267 166.109 107.8C166.109 110.333 166.349 112.653 166.829 114.76C166.896 115.027 166.849 115.273 166.689 115.5C166.529 115.74 166.316 115.873 166.049 115.9ZM175.009 115.16C173.156 115.16 171.689 114.813 170.609 114.12C169.542 113.413 169.009 112.473 169.009 111.3C169.009 110.82 169.162 110.267 169.469 109.64C169.789 109.013 170.236 108.393 170.809 107.78C170.996 107.58 171.229 107.473 171.509 107.46C171.802 107.447 172.056 107.533 172.269 107.72C172.469 107.88 172.569 108.093 172.569 108.36C172.582 108.613 172.502 108.833 172.329 109.02C171.516 109.94 171.109 110.7 171.109 111.3C171.109 112.593 172.409 113.24 175.009 113.24C176.182 113.24 177.342 113.127 178.489 112.9C178.742 112.847 178.969 112.893 179.169 113.04C179.369 113.173 179.489 113.367 179.529 113.62C179.569 113.887 179.516 114.133 179.369 114.36C179.222 114.573 179.022 114.707 178.769 114.76C177.476 115.027 176.222 115.16 175.009 115.16ZM49.32 130.34C49.5467 130.113 49.8133 130 50.12 130C50.4267 130 50.6867 130.113 50.9 130.34C51.1267 130.553 51.24 130.813 51.24 131.12V135.3C51.24 138.527 50.52 140.987 49.08 142.68C47.64 144.36 45.3333 145.453 42.16 145.96C41.88 146 41.62 145.933 41.38 145.76C41.1533 145.6 41.0067 145.38 40.94 145.1C40.8867 144.833 40.9333 144.593 41.08 144.38C41.24 144.153 41.4533 144.013 41.72 143.96C44.4267 143.48 46.3133 142.6 47.38 141.32C48.46 140.04 49 138.053 49 135.36V131.12C49 130.813 49.1067 130.553 49.32 130.34ZM39.84 138.9C39.5467 138.9 39.2933 138.793 39.08 138.58C38.8667 138.367 38.76 138.107 38.76 137.8V131.1C38.76 130.793 38.8667 130.533 39.08 130.32C39.2933 130.107 39.5467 130 39.84 130C40.1467 130 40.4067 130.113 40.62 130.34C40.8467 130.553 40.96 130.807 40.96 131.1V137.8C40.96 138.093 40.8467 138.353 40.62 138.58C40.4067 138.793 40.1467 138.9 39.84 138.9ZM58.28 132.44C58.0133 132.44 57.7933 132.353 57.62 132.18C57.4467 132.007 57.36 131.787 57.36 131.52C57.36 131.253 57.4467 131.033 57.62 130.86C57.7933 130.687 58.0133 130.6 58.28 130.6H72.42C72.6867 130.6 72.9067 130.693 73.08 130.88C73.2667 131.053 73.36 131.267 73.36 131.52C73.36 132.187 73.26 132.787 73.06 133.32C72.2067 135.48 70.7733 137.213 68.76 138.52C68.52 138.68 68.26 138.727 67.98 138.66C67.7 138.593 67.48 138.44 67.32 138.2C67.1733 137.973 67.1267 137.727 67.18 137.46C67.2467 137.193 67.3933 136.987 67.62 136.84C69.34 135.707 70.48 134.3 71.04 132.62C71.0667 132.5 71.0333 132.44 70.94 132.44H58.28ZM62.88 135.26C62.8933 134.967 63 134.72 63.2 134.52C63.4133 134.307 63.6667 134.2 63.96 134.2C64.2533 134.2 64.5 134.307 64.7 134.52C64.9 134.72 64.9933 134.967 64.98 135.26C64.9133 138.06 64.5267 140.22 63.82 141.74C63.1267 143.26 61.9667 144.46 60.34 145.34C60.0867 145.473 59.82 145.5 59.54 145.42C59.2733 145.34 59.0667 145.173 58.92 144.92C58.7867 144.693 58.76 144.453 58.84 144.2C58.92 143.933 59.08 143.733 59.32 143.6C60.56 142.893 61.4467 141.913 61.98 140.66C62.5267 139.407 62.8267 137.607 62.88 135.26ZM79.24 138.42C79.0533 138.62 78.82 138.727 78.54 138.74C78.26 138.753 78.0133 138.667 77.8 138.48C77.6 138.307 77.4933 138.087 77.48 137.82C77.4667 137.54 77.5533 137.3 77.74 137.1C79.54 135.1 80.68 132.833 81.16 130.3C81.2133 130.02 81.3533 129.787 81.58 129.6C81.8067 129.413 82.06 129.327 82.34 129.34C82.62 129.367 82.8533 129.487 83.04 129.7C83.2267 129.9 83.2933 130.14 83.24 130.42C83.2267 130.5 83.2 130.62 83.16 130.78C83.1333 130.94 83.1133 131.06 83.1 131.14C83.0733 131.247 83.12 131.3 83.24 131.3H90.88C91.1867 131.3 91.4533 131.413 91.68 131.64C91.92 131.867 92.0333 132.133 92.02 132.44C91.9267 136.573 90.8933 139.687 88.92 141.78C86.9467 143.86 83.8667 145.133 79.68 145.6C79.4133 145.627 79.1733 145.553 78.96 145.38C78.7467 145.22 78.62 145.007 78.58 144.74C78.54 144.487 78.5933 144.26 78.74 144.06C78.9 143.847 79.1133 143.727 79.38 143.7C82.9 143.26 85.46 142.247 87.06 140.66C88.6733 139.073 89.58 136.64 89.78 133.36C89.78 133.253 89.7267 133.2 89.62 133.2H82.68C82.5733 133.2 82.5 133.253 82.46 133.36C81.7667 135.2 80.6933 136.887 79.24 138.42ZM112.58 132.64C112.847 132.693 113.06 132.84 113.22 133.08C113.38 133.307 113.433 133.553 113.38 133.82C112.593 137.54 111.12 140.32 108.96 142.16C106.8 143.987 103.68 145.133 99.6 145.6C99.32 145.627 99.0667 145.553 98.84 145.38C98.6133 145.207 98.48 144.98 98.44 144.7C98.4 144.433 98.46 144.193 98.62 143.98C98.7933 143.753 99.0133 143.627 99.28 143.6C102.96 143.173 105.72 142.2 107.56 140.68C109.4 139.147 110.673 136.747 111.38 133.48C111.447 133.2 111.593 132.98 111.82 132.82C112.047 132.647 112.3 132.587 112.58 132.64ZM98.46 136.82C98.1933 136.767 97.98 136.633 97.82 136.42C97.66 136.193 97.6067 135.947 97.66 135.68C97.7133 135.413 97.8533 135.2 98.08 135.04C98.32 134.88 98.5733 134.827 98.84 134.88C100.733 135.227 102.267 135.52 103.44 135.76C103.707 135.813 103.913 135.953 104.06 136.18C104.207 136.407 104.253 136.653 104.2 136.92C104.147 137.187 104.007 137.4 103.78 137.56C103.553 137.707 103.307 137.753 103.04 137.7C101.88 137.46 100.353 137.167 98.46 136.82ZM104.56 130.86C104.827 130.913 105.04 131.053 105.2 131.28C105.36 131.507 105.413 131.753 105.36 132.02C105.307 132.287 105.16 132.5 104.92 132.66C104.68 132.807 104.427 132.853 104.16 132.8C102.44 132.467 100.833 132.173 99.34 131.92C99.0733 131.867 98.86 131.733 98.7 131.52C98.5533 131.293 98.5067 131.047 98.56 130.78C98.6133 130.513 98.7533 130.3 98.98 130.14C99.2067 129.967 99.4533 129.907 99.72 129.96C100.72 130.133 102.333 130.433 104.56 130.86ZM128.54 143.38C128.647 143.38 128.7 143.327 128.7 143.22V140.12C128.7 140 128.647 139.94 128.54 139.94H120.66C120.42 139.94 120.213 139.853 120.04 139.68C119.867 139.507 119.78 139.3 119.78 139.06C119.78 138.82 119.867 138.613 120.04 138.44C120.213 138.267 120.42 138.18 120.66 138.18H128.54C128.647 138.18 128.7 138.12 128.7 138V135.58C128.7 135.46 128.647 135.4 128.54 135.4H119.84C119.6 135.4 119.387 135.313 119.2 135.14C119.027 134.967 118.94 134.76 118.94 134.52C118.94 134.28 119.027 134.073 119.2 133.9C119.387 133.727 119.6 133.64 119.84 133.64H129.7C130.007 133.64 130.273 133.753 130.5 133.98C130.727 134.193 130.84 134.453 130.84 134.76V144.04C130.84 144.347 130.727 144.613 130.5 144.84C130.273 145.053 130.007 145.16 129.7 145.16H119.84C119.587 145.16 119.373 145.08 119.2 144.92C119.027 144.747 118.94 144.533 118.94 144.28C118.94 144.027 119.027 143.813 119.2 143.64C119.373 143.467 119.587 143.38 119.84 143.38H128.54ZM138.82 132.56C138.553 132.427 138.373 132.227 138.28 131.96C138.2 131.68 138.227 131.407 138.36 131.14C138.493 130.887 138.707 130.713 139 130.62C139.293 130.527 139.573 130.547 139.84 130.68C141.387 131.467 142.807 132.233 144.1 132.98C144.367 133.127 144.533 133.34 144.6 133.62C144.68 133.9 144.647 134.173 144.5 134.44C144.353 134.707 144.14 134.88 143.86 134.96C143.58 135.027 143.307 134.987 143.04 134.84C141.747 134.093 140.34 133.333 138.82 132.56ZM152.62 132.3C152.9 132.367 153.113 132.52 153.26 132.76C153.42 132.987 153.473 133.24 153.42 133.52C151.873 140.36 147.287 144.253 139.66 145.2C139.367 145.24 139.107 145.173 138.88 145C138.653 144.813 138.52 144.573 138.48 144.28C138.44 144 138.5 143.753 138.66 143.54C138.833 143.313 139.06 143.18 139.34 143.14C142.713 142.687 145.38 141.64 147.34 140C149.3 138.36 150.653 136.047 151.4 133.06C151.467 132.793 151.62 132.587 151.86 132.44C152.1 132.293 152.353 132.247 152.62 132.3ZM165.8 139.2C166.227 138.8 166.44 138.3 166.44 137.7C166.44 137.1 166.227 136.6 165.8 136.2C165.373 135.8 164.827 135.6 164.16 135.6C163.48 135.6 162.92 135.8 162.48 136.2C162.053 136.6 161.84 137.1 161.84 137.7C161.84 138.3 162.053 138.8 162.48 139.2C162.92 139.6 163.48 139.8 164.16 139.8C164.827 139.8 165.373 139.6 165.8 139.2ZM157.24 132.8C157.013 132.8 156.813 132.72 156.64 132.56C156.48 132.387 156.4 132.187 156.4 131.96C156.4 131.733 156.48 131.533 156.64 131.36C156.813 131.187 157.013 131.1 157.24 131.1H166.02C166.14 131.1 166.2 131.04 166.2 130.92V129.7C166.2 129.433 166.3 129.2 166.5 129C166.7 128.8 166.933 128.7 167.2 128.7C167.48 128.7 167.713 128.8 167.9 129C168.1 129.187 168.2 129.42 168.2 129.7V130.94C168.2 131.047 168.26 131.1 168.38 131.1H172.76C172.987 131.1 173.18 131.187 173.34 131.36C173.513 131.533 173.6 131.733 173.6 131.96C173.6 132.187 173.513 132.387 173.34 132.56C173.18 132.72 172.987 132.8 172.76 132.8H168.38C168.26 132.8 168.2 132.86 168.2 132.98V136.8C168.2 136.907 168.22 137.013 168.26 137.12C168.513 137.853 168.64 138.68 168.64 139.6C168.64 141.48 168.153 142.933 167.18 143.96C166.22 144.987 164.647 145.687 162.46 146.06C162.193 146.1 161.953 146.04 161.74 145.88C161.527 145.72 161.4 145.513 161.36 145.26C161.32 145.007 161.373 144.773 161.52 144.56C161.68 144.347 161.893 144.22 162.16 144.18C163.707 143.913 164.82 143.507 165.5 142.96C166.193 142.413 166.6 141.647 166.72 140.66C166.72 140.647 166.72 140.64 166.72 140.64L166.74 140.6C166.74 140.573 166.733 140.56 166.72 140.56L166.68 140.58C166.027 141.26 165.067 141.6 163.8 141.6C162.64 141.6 161.68 141.233 160.92 140.5C160.173 139.753 159.8 138.82 159.8 137.7C159.8 136.58 160.173 135.653 160.92 134.92C161.68 134.173 162.64 133.8 163.8 133.8C164.667 133.8 165.44 134 166.12 134.4H166.18C166.193 134.4 166.2 134.393 166.2 134.38V132.98C166.2 132.86 166.14 132.8 166.02 132.8H157.24ZM185.84 144.06C186.067 143.593 186.18 143.173 186.18 142.8C186.18 141.8 185.327 141.3 183.62 141.3C182.86 141.3 182.267 141.433 181.84 141.7C181.427 141.953 181.22 142.253 181.22 142.6C181.22 143.093 181.52 143.493 182.12 143.8C182.72 144.093 183.653 144.24 184.92 144.24H185.6C185.707 144.24 185.787 144.18 185.84 144.06ZM178.64 139.2C178.427 139.307 178.207 139.327 177.98 139.26C177.767 139.193 177.607 139.06 177.5 138.86C177.393 138.647 177.367 138.427 177.42 138.2C177.487 137.973 177.62 137.8 177.82 137.68L187.18 131.88L187.2 131.86L187.18 131.84H179.4C179.16 131.84 178.953 131.76 178.78 131.6C178.607 131.427 178.52 131.22 178.52 130.98C178.52 130.74 178.607 130.533 178.78 130.36C178.953 130.187 179.16 130.1 179.4 130.1H190.04C190.293 130.1 190.507 130.187 190.68 130.36C190.853 130.533 190.947 130.747 190.96 131C190.987 131.573 190.74 132.013 190.22 132.32L183.84 136V136.02H183.88C184.907 135.807 185.887 135.7 186.82 135.7C188.847 135.7 190.333 136.073 191.28 136.82C192.24 137.567 192.72 138.68 192.72 140.16C192.72 142.027 192.047 143.467 190.7 144.48C189.353 145.493 187.427 146 184.92 146C182.987 146 181.533 145.707 180.56 145.12C179.6 144.533 179.12 143.693 179.12 142.6C179.12 141.76 179.52 141.053 180.32 140.48C181.12 139.893 182.253 139.6 183.72 139.6C185.253 139.6 186.353 139.86 187.02 140.38C187.687 140.887 188.02 141.627 188.02 142.6C188.02 142.947 187.96 143.32 187.84 143.72C187.827 143.76 187.833 143.793 187.86 143.82C187.887 143.847 187.92 143.853 187.96 143.84C189.64 143.28 190.48 142.133 190.48 140.4C190.48 139.347 190.147 138.58 189.48 138.1C188.813 137.607 187.693 137.36 186.12 137.36C183.667 137.36 181.173 137.973 178.64 139.2Z" fill="#373737"/>
<path d="M110.752 71.88C110.379 71.1467 109.792 70.78 108.992 70.78C108.192 70.78 107.599 71.1467 107.212 71.88C106.839 72.6133 106.652 73.8867 106.652 75.7C106.652 77.5133 106.839 78.7867 107.212 79.52C107.599 80.2533 108.192 80.62 108.992 80.62C109.792 80.62 110.379 80.2533 110.752 79.52C111.139 78.7867 111.332 77.5133 111.332 75.7C111.332 73.8867 111.139 72.6133 110.752 71.88ZM113.352 81.44C112.406 82.6133 110.952 83.2 108.992 83.2C107.032 83.2 105.572 82.6133 104.612 81.44C103.666 80.2667 103.192 78.3533 103.192 75.7C103.192 73.0467 103.666 71.1333 104.612 69.96C105.572 68.7867 107.032 68.2 108.992 68.2C110.952 68.2 112.406 68.7867 113.352 69.96C114.312 71.1333 114.792 73.0467 114.792 75.7C114.792 78.3533 114.312 80.2667 113.352 81.44ZM118.14 71.14C117.833 71.14 117.567 71.0267 117.34 70.8C117.113 70.5733 117 70.3067 117 70V69.54C117 69.2333 117.113 68.9667 117.34 68.74C117.567 68.5133 117.833 68.4 118.14 68.4H125.6C125.907 68.4 126.173 68.5133 126.4 68.74C126.627 68.9667 126.74 69.2333 126.74 69.54V70C126.74 70.76 126.447 71.38 125.86 71.86L122.84 74.36V74.38C122.84 74.3933 122.847 74.4 122.86 74.4H123.1C124.26 74.4 125.187 74.76 125.88 75.48C126.587 76.2 126.94 77.1733 126.94 78.4C126.94 79.9467 126.467 81.1333 125.52 81.96C124.573 82.7867 123.213 83.2 121.44 83.2C120.373 83.2 119.293 83.0733 118.2 82.82C117.88 82.74 117.613 82.5667 117.4 82.3C117.2 82.02 117.1 81.7067 117.1 81.36V80.68C117.1 80.4133 117.207 80.2067 117.42 80.06C117.647 79.9 117.893 79.86 118.16 79.94C119.307 80.3133 120.307 80.5 121.16 80.5C121.933 80.5 122.533 80.32 122.96 79.96C123.387 79.6 123.6 79.1 123.6 78.46C123.6 77.8067 123.353 77.3467 122.86 77.08C122.367 76.8133 121.447 76.6733 120.1 76.66C119.793 76.66 119.527 76.5533 119.3 76.34C119.073 76.1133 118.96 75.8467 118.96 75.54V75.5C118.96 74.7533 119.247 74.1333 119.82 73.64L122.66 71.18V71.16C122.66 71.1467 122.653 71.14 122.64 71.14H118.14Z" fill="#B9A68E"/>
</svg>
